<?xml version="1.0" encoding="utf-8"?>
<!-- Generator: Adobe Illustrator 20.0.0, SVG Export Plug-In . SVG Version: 6.00 Build 0)  -->
<svg version="1.1" id="Warstwa_1" xmlns="http://www.w3.org/2000/svg" xmlns:xlink="http://www.w3.org/1999/xlink" x="0px" y="0px"
	 viewBox="0 0 467.2 469.9" style="enable-background:new 0 0 467.2 469.9;" xml:space="preserve">
<style type="text/css">
	.st0{fill:#FDFDFD;}
	.st1{fill:#E0B798;}
	.st2{fill:#34495E;}
	.st3{fill:#714120;}
	.st4{fill:#2C3E50;}
	.st5{fill:#CCA68E;}
	.st6{fill:#FEFEFE;}
	.st7{fill:#2D3F51;}
	.st8{fill:#60646D;}
	.st9{fill:#2E455C;}
	.st10{fill:#2C445B;}
	.st11{fill:#21374B;}
	.st12{fill:#DFB697;}
	.st13{fill:#6A3A19;}
	.st14{fill:#6A3918;}
	.st15{fill:#693A19;}
	.st16{fill:#693918;}
	.st17{fill:#E0B799;}
	.st18{fill:#CEA88E;}
	.st19{fill:#E7BFA0;}
	.st20{fill:#E8C1A2;}
	.st21{fill:#E5BA9A;}
	.st22{fill:#6F401F;}
	.st23{fill:#E1B899;}
	.st24{fill:#DCB191;}
</style>
<g>
	<g>
		<path class="st0" d="M-262,472.6c-78.2,0-156.3,0-234.5,0c-1.6,0-2.1-0.3-2.1-2c0-156.3,0.1-312.6,0-469c0-1.9,0.4-2.1,2.2-2.1
			c156.2,0,312.5,0,468.7,0c1.7,0,2.2,0.3,2.2,2.1c-0.1,156.2-0.1,312.5,0,468.7c0,1.9-0.5,2.2-2.3,2.2
			C-105.9,472.6-183.9,472.6-262,472.6z"/>
		<path class="st1" d="M-185.5,111.7c5.5-0.6,6.9,4,6.4,8.9c-0.4,4.9-1.6,9.6-3.3,14.1c-0.6,1.5-0.5,3-0.6,4.6
			c-0.1,3.4-1.7,5.1-4.9,4.8c-2.3-0.2-2.6,1-3,2.7c-1.8,8.4-5.3,16.1-10.4,23c-8.3,11.2-19.7,17.7-32.9,21.3
			c-1.2,0.3-2.4,0.6-3.6,0.9c-0.7,0.8-1.6,1-2.5,1.2c-4.9,1-9.9,1.5-14.9,1.7c-9.6,0.4-19.1,0.2-28.5-1.7c-0.6-0.1-1.3-0.2-1.9,0.2
			c-0.2,0.2-0.4,0.3-0.6,0.4c-0.3-1.4-1-2.1-2.5-2.5c-11.6-3-22-8.2-30.3-17.1c-7.4-8-11.9-17.4-14.3-28c-0.4-1.8-1.1-2.3-2.8-2.1
			c-3.3,0.4-4.8-1.7-4.8-3.7c0.1-4.2-1.8-7.9-2.7-11.8c-0.9-3.6-1.6-7.2-1.4-10.9c0.2-3.7,1.5-5.5,5.2-6.1c1.3-0.2,0.8-1.1,1.1-1.8
			c1.1,0.3,0.9,1.2,1,2c0.4,2.5,0.8,4.9,1.5,7.5c1.2-0.6,1.6-1.6,2.1-2.5c3.5-6,5.8-12.4,7.9-19c1.2-3.9,2.4-7.8,3.2-11.7
			c0.4-1.8,1.4-2.4,3.2-2.7c5-0.7,10-0.4,15-0.7c9.7-0.6,19.4-1.4,29.1-2.4c14.1-1.5,28.1-3.7,42-6.6c8.7-1.8,17.3-3.8,25.8-6.2
			c0.4-0.1,0.8-0.3,1.3-0.3c2.4-0.5,3-0.1,3,2.3c0.2,4.5,0.6,9,1.4,13.4c2.1,12.4,6.4,24.1,13,34.9c0.2,0.4,0.4,0.8,0.7,1.1
			c0.1,0.1,0.2,0.2,0.6,0.3c0.6-1.5,0.8-3.2,1.2-4.8C-186.5,113.5-186.5,112.4-185.5,111.7z"/>
		<path class="st2" d="M-234.3,199.1c2.7,0.1,5.3,0.7,8,1.3c1.3,0.7,1.1,2,1.1,3.2c0.1,11.4,2.3,22.4,7,32.9
			c1.9,4.2,4.2,8.1,7.2,11.6c1.6,1.9,2.3,4,2.3,6.5c-0.1,32.1,0,64.3,0,96.4c0,1.2,0.3,2.5-0.6,3.6c0,9.4-0.1,18.9-0.1,28.3
			c-0.3,0.1-0.6,0-0.7-0.3c-0.5-1.2-0.4-2.5-0.4-3.7c0-17.6,0-35.2,0-52.7c0-0.4,0-0.9,0-1.3c0-3.5,0-3.6-3.6-3.6c-32,0-64,0-96,0
			c-1.4,0-2.8,0.2-4.2-0.4c-1-0.7-0.9-1.8-0.9-2.8c0-21.6,0-43.1,0-64.7c0-1.6,0.4-3,1.4-4.3c8.5-10.1,12.2-22.1,14-34.8
			c0.5-3.8,1-7.6,0.9-11.5c0-0.8,0.1-1.6,0.7-2.2c2.7-0.6,5.4-1.3,8.3-1.4c0.7,0.6,0.6,1.4,0.7,2.2c0.3,3.9,1.2,7.7,3.1,11.2
			c2.5,4.8,6.2,8.1,11.2,9.9c8,2.9,16.3,3,24.4,0.4c9.1-2.9,13.8-9.7,15.2-18.9C-235.1,202.4-235.3,200.6-234.3,199.1z"/>
		<path class="st3" d="M-185.5,111.7c-0.6,3-1.3,6.1-2,9.2c-1-0.2-1.3-1-1.6-1.6c-8.4-13.6-13.4-28.3-14.7-44.3c-0.2-2-0.3-4-0.3-6
			c0-1.5-0.4-1.7-1.8-1.3c-11.7,3.4-23.5,6.1-35.5,8.3c-11.9,2.2-23.9,3.9-35.9,5.2c-13.2,1.4-26.4,2.5-39.7,2.7
			c-4.8,0.1-4.8,0.2-6,4.9c-2.5,9.3-5.2,18.4-9.8,27c-1,1.8-2,3.6-3.7,5.3c-1.3-3.8-1.5-7.6-2.3-11.2c-1.3-8.8-2-17.6-1.5-26.5
			c1.7-31.1,16.8-52.9,46-64.1c25.5-9.8,50.9-8.9,75.5,3.2c20.1,9.9,31.1,26.7,34.6,48.6c2.1,13.3,1.1,26.5-1.2,39.6
			C-185.5,111.1-185.5,111.4-185.5,111.7z"/>
		<path class="st4" d="M-314.5,320.6c34,0,68,0,102.1-0.1c2.2,0,2.5,0.8,2.5,2.7c-0.1,19.9,0,39.9,0,59.8c-0.8,0.9-1.9,0.8-2.9,0.8
			c-11.9,0-23.8,0-35.7,0c-1,0-1.9,0-2.7-0.7c-0.5-0.7-0.2-1.6-0.2-2.4c0-9.4,0-18.9,0-28.3c0-6-2-8.3-7.9-9
			c-2.9-0.4-5.7-0.2-8.5,0.7c-2.6,0.8-4,2.6-4.6,5.2c-0.3,1.5-0.4,2.9-0.4,4.4c0,9.8,0,19.6,0,29.4c-0.8,0.8-1.9,0.7-2.9,0.7
			c-11.9,0-23.8,0-35.8,0c-1,0-2.1,0.1-2.9-0.7c0-9.6-0.1-19.2-0.1-28.7c-0.8-0.9-0.6-1.9-0.6-3c0-9.2,0-18.5,0-27.7
			C-315.3,322.6-315.5,321.4-314.5,320.6z"/>
		<path class="st1" d="M-314.5,320.6c0,9.9,0,19.8-0.1,29.8c0,1.3,0,2.6-0.1,4c-6.1,6.5-13.7,7.2-20.2,1.8c-2.8-2.3-4.4-5.5-4.5-9
			c-0.4-9.7,0.1-19.3,0.5-29c0.4-10.4,1.1-20.7,2.2-31c2.3-23.2,6.1-46.1,13.3-68.3c2.6-8,8-12.2,15.2-15.1c3.3-1.3,6.7-2.2,10.1-3
			c-0.1,12.8-2.1,25.3-7.6,37c-2,4.4-4.5,8.4-7.7,12.1c-0.8,0.9-1.2,1.7-1.2,2.9c0,22.4,0,44.8,0,67.1
			C-314.6,320-314.5,320.3-314.5,320.6z"/>
		<path class="st1" d="M-209.5,354.7c0-12.1-0.1-24.2-0.1-36.3c0-21.7,0-43.4,0-65.1c0-1.4-0.3-2.5-1.2-3.6
			c-8.5-10-12.3-21.8-14.3-34.5c-0.7-4.4-1-8.8-1-13.2c0-0.5-0.2-1-0.3-1.5c6.7,1.5,13.2,3.6,18.9,7.8c2.6,2,4.4,4.5,5.5,7.6
			c5,14,8.3,28.4,10.7,43c2.1,12.5,3.5,25.1,4.5,37.7c0.5,7.1,1,14.2,1.3,21.4c0.4,9.1,0.6,18.1,0.7,27.2c0.1,5.7-2.2,10.2-7.4,12.9
			c-5.4,2.9-11.7,1.9-16.2-2.3C-208.7,355.3-209.1,355-209.5,354.7z"/>
		<path class="st1" d="M-314.5,383c13.9,0,27.7,0,41.6,0c0,24,0,47.9,0,71.9c-0.9,0.7-1.8,0.3-2.8,0.1c-12.2-2.6-24.3-5.1-36.5-7.8
			c-0.9-0.2-2-0.2-2.4-1.3c0-20,0-40.1,0-60.1C-314.6,384.9-314.5,384-314.5,383z"/>
		<path class="st1" d="M-251.2,383.1c12.9,0,25.8,0,38.6,0c0.9,0,1.8-0.1,2.6-0.1c0.1,0,0.2,0,0.4,0c0,21,0,42,0.1,63
			c-0.4,1-1.4,1-2.2,1.2c-12.3,2.7-24.7,5.3-37,7.9c-0.9,0.2-1.7,0.4-2.5-0.3C-251.2,430.9-251.2,407-251.2,383.1z"/>
		<path class="st1" d="M-234.3,199.1c-0.2,3.5-0.6,6.9-1.7,10.2c-2.5,7.5-7.7,12.3-15.2,14.5c-6.8,2-13.7,2-20.5,0.4
			c-10.8-2.7-17.5-11.2-18-22.6c0-0.8,0-1.6-0.1-2.4c0.4,0,0.7-0.1,1.1-0.1c2-0.1,2.8-1,2.5-3c-0.1-0.7,0-1.4,0-2.2l0.1-0.1
			c0.8-0.5,1.6-0.2,2.4-0.1c8.2,1.6,16.5,2.3,24.9,2c6.2-0.2,12.4-0.7,18.5-2c0.8-0.2,1.7-0.6,2.6,0c0,0.3,0.1,0.6,0.1,0.9
			C-237.8,198.4-237.8,198.4-234.3,199.1z"/>
		<path class="st4" d="M-251.2,454.9c5.8-1.2,11.6-2.3,17.4-3.6c7.8-1.6,15.6-3.3,23.4-5c0.3-0.1,0.5-0.2,0.8-0.3
			c5.9,2.1,8,6.7,8.5,12.5c0.1,1.4-0.2,1.8-1.6,1.8c-4.9-0.1-9.8,0-14.6,0c-10.6,0-21.1,0-31.7,0c-1.9,0-2.8-0.3-2.4-2.4
			C-251.3,456.9-251.6,455.9-251.2,454.9z"/>
		<path class="st4" d="M-314.6,446c5.6,1.6,11.3,2.5,16.9,3.7c8.2,1.8,16.5,3.5,24.7,5.2c0.3,5.3,0.3,5.3-5.1,5.3
			c-14.3,0-28.6,0-43,0c-1.9,0-2.4-0.4-2.2-2.3C-322.5,452.3-320.3,447.9-314.6,446z"/>
		<path class="st5" d="M-237.9,193.8c-5.1,1.3-10.4,1.9-15.6,2.3c-4,0.3-7.9,0.6-11.9,0.3c-6.9-0.4-13.9-0.7-20.7-2.6
			c0-0.8-0.4-1.7,1.3-1.4c6.6,1.3,13.3,1.9,20.1,2c9.1,0.1,18.1-0.3,27-2.3C-237.9,192.6-237.9,193.2-237.9,193.8z"/>
		<path class="st3" d="M-262.1,164.5c-11.3-0.2-22.4-1.4-32.6-6.6c-3.8-1.9-7.2-4.4-10-7.6c-0.6-0.7-1-1.6-0.2-2.4
			c0.9-0.8,1.6-0.3,2.3,0.4c6,6.8,14,10,22.6,11.6c13.4,2.5,26.8,2.5,40.1-1.1c7-1.9,13.4-5,18.3-10.6c0.7-0.8,1.5-1,2.3-0.3
			c0.9,0.8,0.4,1.6-0.2,2.3c-3,3.5-6.7,6-10.7,8c-7.1,3.4-14.6,5.1-22.4,5.8C-255.8,164.3-258.9,164.6-262.1,164.5z"/>
		<path class="st3" d="M-301.5,105.3c3.8-2.1,8-1.5,10.7,1.6c2.7,2.9,3,7.3,0.8,10.6c-2.3,3.3-6.3,4.6-10.1,3.3c-3.7-1.3-6-5-5.5-9
			c0.1-0.5-0.4-2.2,1.1-1.1c1.7,1.2,3.2,1,4.4-0.7c1.1-1.6,0.5-3.1-1-4.2C-301.3,105.7-301.3,105.6-301.5,105.3z"/>
		<path class="st3" d="M-235,110.2c2.2,1.5,3.9,1.5,5-0.1c1.1-1.5,0.7-3-1.3-4.7c3.2-2.4,7.6-1.8,10.6,1.4c3,3.1,3.1,7.8,0.3,11.3
			c-2.6,3.3-7.4,4.2-11.1,1.9C-235,118-236.5,113.7-235,110.2z"/>
	</g>
</g>
<g>
	<g>
		<path class="st6" d="M0.1,235.1C0.1,158,0.1,81,0,3.9C0,0.5,0.9,0,4,0c153,0.1,306.1,0.1,459.1,0c3.1,0,4,0.4,4,3.9
			c-0.1,154-0.1,307.9,0,461.9c0,3.5-0.9,4.1-4.3,4.1c-152.9-0.1-305.8-0.1-458.7,0c-3.3,0-4.3-0.6-4.3-4.1
			C0.1,388.9,0.1,312,0.1,235.1z"/>
		<path class="st4" d="M297.3,360.3c0.1,7.7,0.1,15.5,0.4,23.2c0.1,3.2-1.1,4.1-4.1,4.3c-5.7,0.4-11.4,1.2-17.2,1.9
			c-1.9,1.5-4.2,1.7-6.4,2c-10.1,1.2-20.3,0.7-30.4,1.8c-1.6,0.2-3-0.2-4.2-1.3c-1.2-0.4-2.4-0.4-3.6,0c-1.5,1.4-3.3,1.4-5.1,1.2
			c-9.4-1-18.8-0.6-28.2-1.6c-2.7-0.3-5.5-0.3-7.8-2.1c-5.9-0.7-11.7-1.6-17.6-2c-3.1-0.2-4.1-1.3-4-4.4c0.4-8.6,0.5-17.2,0.7-25.8
			c-0.8-0.8-0.5-1.4,0.3-1.9c0.4-0.1,0.6,0,0.6,0.3c0,0,0.1,0.1,0.1,0.1c-0.2-1.7-0.9-3.3-1.3-5c-0.4-8.8,1.4-17.4,2.5-26.1
			c1.3-10.5,3.4-20.9,6.5-31c0.5-1.6,0.9-3.2,2-4.6c0.5-0.7,1.2-1.2,1.9-1.5c0.5-0.2,1.1-0.3,1.6-0.4c2.4-0.4,4.8-0.5,7.3-0.5
			c28.1,0,56.1,0,84.2,0c2.4,0,4.9,0.1,7.3,0.4c0.6,0.1,1.1,0.2,1.6,0.4c0.8,0.4,1.4,0.9,1.9,1.6c4.3,9.5,6,19.7,7.7,29.9
			c1.6,9.3,2.4,18.6,3.5,28C298.2,351.6,297.3,355.9,297.3,360.3z"/>
		<path class="st3" d="M151.4,114c-3.1-14.6-4.8-29.4-2.3-44.3c4.2-24,18.1-40.2,40.6-48.5c28.5-10.4,57.6-10.6,86.1-0.5
			C306,31.4,321.3,56.8,319,89.7c-0.6,8.5-2.3,16.8-3,25.3c-0.3,0.4-0.7,0.7-1.2,0.8c-4.2-0.9-5.3,1.2-5.5,5
			c-0.3,4.6-0.8,9.3-1.7,13.9c-0.5,2.4-0.3,5.2-2.6,7c-0.5,0.2-1,0.1-1.4-0.1c-1.6-1.5-1.7-3.5-2-5.4c-2.6-13.8-5-27.7-8-41.4
			c-0.5-2.1-0.7-4.2-2.4-5.7c-1.6-1.5-3.5-1.1-5.3-0.6c-0.3,0.1-0.7,0.2-0.9,0.1c-4-2.3-8-1.9-12-0.1c-1.8-0.4-3.7-0.5-5.5,0.1
			c-0.3,0.1-0.7,0.2-0.9,0.1c-3.9-2.4-7.9-1.9-11.9-0.1c-1.8-0.4-3.7-0.5-5.5,0c-0.3,0.1-0.7,0.2-0.9,0.1c-3.9-2.4-7.9-1.9-11.9-0.1
			c-1.8-0.4-3.7-0.5-5.5,0c-0.3,0.1-0.7,0.2-0.9,0.1c-3.9-2.4-7.9-1.9-11.9-0.1c-1.8-0.4-3.7-0.5-5.5,0c-0.3,0.1-0.7,0.2-0.9,0.1
			c-3.9-2.4-7.9-1.8-11.9-0.1c-1.8-0.4-3.7-0.5-5.5,0c-0.6,0,0.1,0.3-0.4,0.1c-4.2-2-8.3-2-12.5-0.1c-2.1-0.3-4.2-1-6,0.7
			c-1.8,2.4-2,5.4-2.6,8.2c-2.5,11.9-4.8,23.7-7,35.6c-0.4,2.1-0.6,4.2-2,6c-0.7,0.8-1.5,1.3-2.6,0.9c-3.6-6.3-3.2-13.3-3.7-20.1
			c-0.2-2.5-0.2-4.6-3.6-4.3C153,115.1,152,114.9,151.4,114z"/>
		<path class="st2" d="M182.6,288.3c-0.3,0.3-0.6,0.6-0.8,0.9c-1.8-1.7-1.4-3.9-1.4-6c-0.1-10-0.2-20,0-30c0.1-4.7-1.2-8.4-4.1-12.1
			c-2.9-3.6-6.8-6.7-6.8-12c0.7-2.3,1.5-4.6,2-7c1.8-8.6,6.3-15.2,14-19.5c4.2-3,9-4,14-4.4c2.1,0.8,2.6,2.8,3.5,4.6
			c4.2,8.5,10.6,14.7,19.5,18.3c3.2,1.3,5.5,1.4,7.5-2.3c2.8-5.4,4.2-5.4,7.2-0.2c2.1,3.6,4.4,3.9,7.9,2.5
			c8.8-3.7,15-10.1,19.3-18.5c0.8-1.5,0.9-3.3,2.6-4.2c5.3,0,10.2,1.2,14.4,4.5c11.6,5,13.4,16,16.4,26.3c0.6,2-0.6,3.5-1.7,4.8
			c-3.3,4.4-6.5,8.9-10,13.2c-0.3,0.4-0.5,0.8-0.7,1.3c-0.4,11.2,0,22.5-0.2,33.7c0,2.1,0.3,4.3-1.3,6.1c-33.4,0-66.9,0-100.3,0
			c-1-5.5-0.3-11.1-0.4-16.7c-0.1-8.3,0-16.6-0.1-24.9c0,13,0,26,0,39C183,286.6,183.1,287.5,182.6,288.3z"/>
		<path class="st3" d="M200.1,199c-4.9,1.2-9.7,2.5-14.6,3.7c-2.2-0.2-4.2-0.3-6.4,1.2c-11.7,8.1-24.2,8.9-36.4,1.7
			c-12.7-7.4-17.5-19.2-16.3-33.6c1.9-22.1,11.1-41,25-58c1.1,0.1,2.1,0.1,3.2,0.2c-2.3,3.6-2.3,7.5-1.1,11.3c1.7,5.3,2.1,11,4.5,16
			c1.1,1.4,2.7,1.3,4.2,1.4c0.4,0.2,0.7,0.4,0.9,0.8c0.6,1.1,0.9,2.4,1.3,3.6c5.5,20.2,18,33.8,38,40.5c2.8,0.9,6,1.2,8.1,3.8
			c0.2,0.4,0.4,0.9,0.5,1.4c0.4,2.9-0.6,4.9-3.6,5.8C204.9,199.1,202.5,200.4,200.1,199z"/>
		<path class="st3" d="M281.2,202.8c-4.9-1.1-9.4-3.3-14.4-3.9c-2.5,1.4-5,0.2-7.5-0.2c-2.7-1-3.2-3.2-3.1-5.7c0-0.5,0.1-1,0.3-1.4
			c1.2-2.4,3.6-2.5,5.8-3.2c18.3-5.5,31.3-16.9,38.2-34.9c1.5-4,1.3-8.4,3.4-12.1c0.3,0,0.6,0,0.9,0c2.5,1.5,4.5,1.3,5-1.9
			c0.8-5.6,3.4-10.7,4-16.3c0.9-2.3,0.7-4.7,0.4-7.1c0.1-0.4,0.3-0.8,0.6-1.2c0.4,0,0.8-0.1,1.1-0.1c15.1,18.2,24.5,38.6,24.5,62.6
			c0,13.2-6.3,23.1-17.9,29c-11.4,5.9-22.9,5.1-33.7-1.9C286.3,203,284.1,202,281.2,202.8z"/>
		<path class="st1" d="M235.4,392.2c13.7-0.8,27.4-1.7,41.1-2.5c0,17.6-0.1,35.2-0.1,52.8c-1.1,1.8-3,1.9-4.7,2.3
			c-9.5,2.2-18.9,4.2-28.4,6.1c-3.7,0.7-6.5,2.1-7.7,5.9c-1.5-0.7-1-2.1-0.9-3.2c1.7-19.8,0.3-39.7,0.7-59.5
			C235.3,393.4,235.3,392.8,235.4,392.2z"/>
		<path class="st1" d="M190.7,389.7c13.7,0.8,27.4,1.6,41.1,2.5c0,19.7,0,39.5,0,59.2c-1.6,1-3.2,0.5-4.9,0.2
			c-10.5-2.2-21-4.5-31.5-6.7c-1.8-0.4-3.6-0.7-4.7-2.4C190.8,424.9,190.7,407.3,190.7,389.7z"/>
		<path class="st1" d="M169.4,229.1c2.2,4.9,5.9,8.7,9.2,12.9c2.2,2.8,3.2,5.5,3.2,9.1c-0.2,12.7-0.1,25.4,0,38.1
			c-5.2,13.7-7.3,28.1-9.2,42.6c-0.9,6.8-2,13.5-1.8,20.4c0.5,1.2,0.8,2.3-0.2,3.4c-0.2,0.7-0.5,1.3-0.7,2
			c-9.1-2.3-12.9-6.8-12.7-16c0.7-36.6,2.4-73.2,11.6-108.9C169,231.5,168.5,230.1,169.4,229.1z"/>
		<path class="st1" d="M285.4,246.4c3.8-6,9-10.8,12.2-17.2c4.5,17.3,7.1,34.9,9.2,52.7c2.3,19.8,2.4,39.6,3.2,59.5
			c0.4,8.2-2.8,12.5-10.5,15.5c-1.9,0.7-1.8,2.1-2.2,3.5c-1-11.3-1.8-22.6-3.4-33.9c-1.9-12.6-4.2-25.1-8.4-37.2c0-0.3,0-0.5,0-0.8
			c-0.5-13.7-0.2-27.5-0.2-41.2C285.3,246.9,285.4,246.6,285.4,246.4z"/>
		<path class="st7" d="M235.5,456.7c-1-4,0.3-5.7,4.7-6.5c12.1-2.2,24.1-5.1,36.2-7.7c4.8,2,7.3,5.6,8.2,10.6c0.5,2.6,0,3.8-3.1,3.8
			C266.1,456.7,250.8,456.8,235.5,456.7z"/>
		<path class="st7" d="M190.8,442.5c13.7,3,27.4,6,41,8.9c1.1,4.4-0.6,5.6-5,5.5c-13.6-0.3-27.2-0.2-40.8,0c-3.2,0-4-1-3.4-3.9
			C183.4,448,186,444.4,190.8,442.5z"/>
		<path class="st8" d="M284.7,246.3c0.2,0,0.5,0,0.7,0c0,0,0.4,0,0.4,0c0.4,14.3,0.3,28.6,0,42.8c0,0-0.4,0-0.4,0
			c-0.3-0.3-0.6-0.6-0.8-0.9c-0.9-10.7-0.2-21.4-0.4-32.1C284.2,252.9,283.7,249.6,284.7,246.3z"/>
		<path class="st9" d="M182.6,288.3c0-13.6,0-27.2,0-40.8c0.3,0,0.6,0,0.9,0c0,13.6,0,27.2,0,40.8
			C183.1,288.3,182.8,288.3,182.6,288.3z"/>
		<path class="st10" d="M284.7,246.3c0,14,0,28,0,42c-0.3,0-0.6,0-0.9,0c0-12.4,0-24.8,0-37.2C283.8,249.5,283.2,247.7,284.7,246.3z
			"/>
		<path class="st11" d="M170.5,355.5c0.1-1.1,0.1-2.2,0.2-3.4c1.4,1.1,0.8,2.7,0.8,4.1c0,0.6-0.5,0.5-0.7,0.1
			C170.6,356.1,170.6,355.8,170.5,355.5z"/>
		<path class="st1" d="M303.9,141.5C303,157,295.5,169,284,178.7c-6.5,5.4-14.1,8.8-22.2,11.1c-1.6,0.5-3.3,0.5-4.6,1.8
			c-5.2,2.8-11.1,2.3-16.7,2.9c-9.3,0.9-18.7,0.2-27.9-1.6c-1.1-0.2-2-0.6-2.9-1.2c-2.4-1.8-5.4-1.9-8.1-2.9
			c-20.3-7.1-33.4-20.7-38.2-41.9c0.2-2-0.2-3.8-0.8-5.7c-0.1-0.9,0.1-1.8,0.7-2.5c3.1-15.4,6.1-30.7,9.3-46
			c0.4-1.8-0.2-4.5,2.6-5.2c2.1-0.3,4.2,0.3,6.3,0.1c4.3-3.1,8.5-2.2,12.8,0c1.8-0.2,3.7-0.1,5.5,0c4.3-3.1,8.5-2.2,12.8,0
			c1.8-0.2,3.7-0.1,5.5,0c4.3-3.1,8.5-2.2,12.8,0c1.8-0.2,3.7-0.1,5.5,0c4.3-3.1,8.5-2.2,12.8,0c1.8-0.2,3.7-0.1,5.5-0.1
			c4.3-3.1,8.5-2.2,12.8,0.1c1.8-0.2,3.7-0.1,5.5-0.1c4.3-3.1,8.5-2.2,12.8,0c1.8-0.2,3.7-0.1,5.5,0c2.8-0.2,2.5,2,2.9,3.7
			c3.5,15.1,6.2,30.5,9,45.7C303.2,138.5,303.6,140,303.9,141.5z"/>
		<path class="st12" d="M157.9,143.2c-1.2-0.2-2-1.1-2.1-2.1c-0.6-7.6-4.5-14.5-4.5-22.2c0-2.5,0.9-4,3.2-4.7
			c2.9-1.1,4.4-0.9,4.3,3.1c-0.2,7.5,1,15,2.8,22.3c0.5,0.6,0.5,1.2,0.3,1.9C161.1,143.3,159.4,142.9,157.9,143.2z"/>
		<path class="st12" d="M314.8,115c0.1,0.3,0.1,0.6,0,0.9c-0.1,2.4-0.1,4.9,0,7.3c0,6.2-3.6,11.7-3.8,17.9c-0.1,2-2.2,2.7-4.1,2.9
			c-1.9,0.2-2.3-0.9-2.1-2.5c2.6-9.1,2.9-18.5,3.8-28C310.7,114,312.8,114.5,314.8,115z"/>
		<path class="st13" d="M181.6,87.6c-2.1,1.1-4.2,0.7-6.3-0.1C177.4,86.3,179.5,86.2,181.6,87.6z"/>
		<path class="st14" d="M199.8,87.6c-1.8,0.9-3.6,0.9-5.5,0C196.2,86.2,198,86.3,199.8,87.6z"/>
		<path class="st14" d="M254.6,87.6c-1.8,0.9-3.6,1-5.5,0.1C250.9,86.2,252.7,86.3,254.6,87.6z"/>
		<path class="st15" d="M291.1,87.6c-1.8,0.9-3.6,1-5.5,0C287.4,86.2,289.2,86.3,291.1,87.6z"/>
		<path class="st13" d="M272.8,87.6c-1.8,0.9-3.6,1-5.5,0.1C269.1,86.2,271,86.3,272.8,87.6z"/>
		<path class="st14" d="M218.1,87.6c-1.8,0.9-3.6,1-5.5,0C214.4,86.2,216.3,86.3,218.1,87.6z"/>
		<path class="st16" d="M236.3,87.6c-1.8,0.9-3.6,1-5.5,0C232.7,86.2,234.5,86.3,236.3,87.6z"/>
		<path class="st3" d="M161.5,141.5c0.1-0.6,0.1-1.2,0.2-1.9c0.6-0.3,1.1-0.6,1.7-0.9c0,0.9,0.1,1.8,0.1,2.7c0.4,1,0.7,2-1,1.8
			l0.1,0C161.8,142.9,161.1,142.5,161.5,141.5z"/>
		<path class="st6" d="M259.2,197.8c2.5,0.4,5.1,0.7,7.6,1.1c-3.8,11.5-11.4,19.3-22.6,23.8c-3.9,1.6-6.2,0.8-7.8-3.1
			c-0.6-1.5-1.6-2.8-2.5-4.3c-1.8,0.6-2.1,2.3-2.8,3.5c-3.5,5.7-3.4,5.8-9.8,3.2c-10.6-4.4-17.3-12.4-21.2-22.9
			c2.4-0.4,4.7-0.8,7.1-1.2c2.5-1,4.6,0,6.6,1.5c4.4,3.3,9.4,5.2,14.9,5.8c3.2,0.4,6.5,0.3,9.7,0c5.7-0.5,10.7-3.1,15.4-6.1
			C255.5,198,257.1,197,259.2,197.8z"/>
		<path class="st17" d="M229,206.3c-6.3-0.1-11.7-2.7-16.6-6.3c-1.7-1.3-3.3-1.9-5.3-2c3.5-0.5,2.2-3.4,2.7-5.4
			c9.4,0.7,18.7,2.4,28.2,1.9c6.4-0.3,12.7-2,19.2-1.8c0.6,1.8-0.7,4.3,2,5.2c-4.7,1.1-7.8,5-12.3,6.4c-2.9,0.9-5.6,2.2-8.7,2
			C235.1,205.7,232.1,205.6,229,206.3z"/>
		<path class="st18" d="M257.2,192.6c-15.8,3.7-31.6,3.8-47.4-0.1c-0.1-0.3-0.2-0.5-0.1-0.8c8,0.1,15.7,2,23.8,1.9
			c8-0.1,15.8-2,23.8-2C257.2,191.9,257.2,192.2,257.2,192.6z"/>
		<path class="st19" d="M162.4,143.3c0.3-0.6,0.7-1.2,1-1.8c1.3,1.8,1.3,3.6,0,5.4C163.1,145.7,162.8,144.5,162.4,143.3z"/>
		<path class="st20" d="M161.5,141.5c0.3,0.6,0.7,1.2,1,1.8c-1.5,0.6-3.1,1-4.6-0.1C159.1,142.6,160.3,142.1,161.5,141.5z"/>
		<path class="st19" d="M314.8,123.2c-1.4-2.4-1.4-4.9,0-7.3C315.9,118.3,315.7,120.8,314.8,123.2z"/>
		<path class="st21" d="M285.9,289.2c-0.5-14.3-0.4-28.6,0-42.8c1.1,1.3,0.7,2.9,0.7,4.4c0,11.4,0,22.7,0,34.1
			C286.5,286.3,286.9,287.9,285.9,289.2z"/>
		<path class="st22" d="M233,163.6c-11.2,0.1-22.1-1.4-32.2-6.7c-3.4-1.8-6.5-4-9-6.9c-0.6-0.7-1.3-1.4-0.5-2.4
			c0.8-1,1.6-0.5,2.3,0.2c16.4,15.4,36.3,14.1,56.3,11.6c8.7-1.1,16.7-4.4,23-11c0.7-0.7,1.4-2,2.6-1c1.4,1.2,0.2,2.2-0.6,3
			c-6.8,7.1-15.7,10.1-25.1,11.9C244.3,163.5,238.6,163.6,233,163.6z"/>
		<path class="st3" d="M199.1,103.2c4.7,0.1,8,3.9,8.1,9.2c0.1,4.7-3.5,8.6-8.1,8.8c-4.2,0.2-8.2-3.1-8.6-7.2
			c-0.2-1.7-0.9-3.6,2.5-2.8c2.8,0.6,3.5-1.8,3.1-4.2C195.6,103.6,196,103.1,199.1,103.2z"/>
		<path class="st3" d="M265.5,120.4c-3.1-0.5-4.7-2.7-5.4-5.5c-0.4-1.7-2-4.6,2.6-3.9c3.2,0.5,3.6-2.8,2.5-4.8c-1.6-2.7,0-2.7,1.7-3
			c4.2-0.8,7.9,1.8,9.4,6.7c1.4,4.6-0.5,8.3-5.3,10.5C269.2,120.4,267.3,120.3,265.5,120.4z"/>
		<path class="st23" d="M224.5,164.5c6,0,12,0,18,0c0,0.1,0,0.2,0,0.4c-6,0-12,0-18,0C224.5,164.7,224.5,164.6,224.5,164.5z"/>
		<path class="st13" d="M265.5,120.4c1.8-1.3,3.6-1.3,5.4,0C269.2,121.4,267.4,121.5,265.5,120.4z"/>
		<path class="st24" d="M229,206.3c3-1.5,6.1-1.5,9.2,0C235.1,206.8,232.1,206.8,229,206.3z"/>
	</g>
</g>
</svg>
