<?xml version="1.0" encoding="utf-8"?>
<!-- Generator: Adobe Illustrator 20.0.0, SVG Export Plug-In . SVG Version: 6.00 Build 0)  -->
<svg version="1.1" id="Warstwa_1" xmlns="http://www.w3.org/2000/svg" xmlns:xlink="http://www.w3.org/1999/xlink" x="0px" y="0px"
	 viewBox="0 0 221 509.2" style="enable-background:new 0 0 221 509.2;" xml:space="preserve">
<style type="text/css">
	.st0{fill:#FFFFFF;}
</style>
<g>
	<g>
		<path class="st0" d="M-31.7,510.5c0-169.9,0-339.9,0-509.8c389.8,0,779.5,0,1169.3,0c0,169.9,0,339.9,0,509.8
			C747.8,510.5,358,510.5-31.7,510.5z M346.8,134.4c0.7-1.6,1.3-3.2,2.1-5c-2.5-0.4-4-0.7-3.9,1.7c-0.4,0.4-0.8,0.8-1.2,1.2
			c-4,0-1,3.7-2.9,5.2c-0.5,0-1.3,0-2.1-0.2c-1.8-0.5-3.4-1.3-5.2-1.6c-1.5-0.3-3.6-0.2-3,2.1c0.3,1.2,1.7,2.7,2.9,3
			c2.1,0.5,4.3,0.1,7.5,0.1c-0.6,1.7-0.7,3.8-1.6,4.3c-4.9,2.4-8.1,6.7-8.5,11.5c-0.4,6.2-5,9.4-7.8,13.6c-3.9,5.7-9.8,10-14,15.6
			c-4.4,5.9-8.1,12.5-10.2,19.6c-1.7,5.8-2.5,11.9-3.7,17.9c-0.1,0.4-0.1,0.9-0.2,1.3c-0.9,5.6-2.7,11.3-2.7,16.9
			c0,11.9-1.6,23.8,1.3,35.7c1.5,6.2,0.9,12.8,3.4,19c2.2,5.4,3.2,11.2,4.9,16.7c0.7,2.3,2.1,3.9,4.9,3c1.2-3.2-0.7-5.8-1.2-8.7
			c-1.6-8-2.6-16.2-3.8-24.3c0-0.3-0.1-0.7-0.1-1c-0.9-7.2-2.3-14.4-2.7-21.6c-0.4-8-0.2-16,1.3-24.1c1.4-7.5,0.7-15.3,3.5-22.7
			c1.7-4.6,2.2-9.6,3.7-14.2c1-3,2.6-5.9,4.6-8.4c4.2-5.3,8.7-10.2,13.1-15.3c1.3-1.6,2.2-3.7,3.8-4.8c3.5-2.3,7.2-4.4,10.9-6.2
			c4.6-2.2,9.2-4.5,14.5-4c0.6,0.1,1.3-0.2,1.9-0.5c5.1-2.9,11.9-1.4,15,3.5c1.7,2.6,3.5,5.2,5.4,8c-5.6,1-12.7,4.3-14.4,6.5
			c2.5,0.1,5.1,0.3,7.8,0.4c0.2-1.1,0.3-2,0.5-3.1c2.4-0.6,4.7-1.2,7.1-1.8c1.2,3.8,2.2,6.9,3.2,10c1.1,3.1,0.6,7-1.4,7.7
			c-2.7,1-5.6,2.4-8.3,2c-3.8-0.5-7.4-2.3-11.1-3.5c-2.6-0.9-5.2-2.2-7.8-2.4c-3-0.2-6.9,4.3-6.8,8c1.7-0.9,3.3-1.3,4.4-2.3
			c3.3-3.1,4.8-3.1,8.2-0.1c1.6,1.5,3.4,3.1,5.3,3.8c7.4,2.3,14.6,1.6,21.4-2.2c1.7-0.9,2.3-2.1,2-3.8c-0.5-2.7-1.1-5.4-1.8-8
			c-1.1-4.2-2.4-8.3-3.6-12.4c-1-3.6-3.5-6.2-6-8.7c-2.5-2.5-4.7-5.4-7.3-7.8c-3-2.9-5.9-6.3-9.5-7.9c-3.6-1.6-8.1-1.4-12.2-1.8
			c-1.5-0.2-3,0-4.3,0c-0.8-3-0.5-4.9,1.8-6.4c0.6-0.4,0.8-1.4,1.1-2.1C345.6,135.3,346.2,134.9,346.8,134.4z M139.6,244.8
			c-2,4.3-1.1,8.7-1.1,13.7c2.3-0.6,4.1-1,5.9-1.6c0.4-0.1,0.7-0.9,0.7-1.5c0-0.2-0.8-0.7-1.2-0.7c-1.3,0-2.5,0.2-4.4,0.4
			C139.5,251.4,139.5,248.1,139.6,244.8c2.2-0.7,4.5-1.2,7-1.9C142.9,240.6,140.5,241.4,139.6,244.8z M740.9,98
			c1.2-0.7,2.9-2.2,3.5-1.8c2.3,1.2,4.8,2.8,6.1,4.9c1.3,2,1.5,4.9,1.7,7.4c0.3,3.5,0.1,7,0.1,10.6c0,2.3-1.1,3.4-3.4,3.5
			c-3.4,0-6.8,0.2-10.2,0c-2.4-0.1-4.6-0.1-5.6,2.8c0.9,0.7,1.9,2.1,3,2.2c6,0.6,12.1,0.6,17.5-2.2c1.8-0.9,3.6-5,3-6.7
			c-1.7-4.8-1.3-9.4-1-14.1c0.1-2.6-0.7-4.1-2.8-5.4c-3.4-2-6.6-4.3-10.4-6.8C741.9,94.4,741.5,96.2,740.9,98
			c-2.7,0.2-4,3.3-2.4,7.2C739.4,102.5,740.2,100.2,740.9,98z M88.8,327.7c0.4,0.7,0.7,1.7,1.2,1.9c4.5,1.5,9.1,3,13.7,4.2
			c1.7,0.5,3.5,0.4,5.8,0.6c-0.5-1.6-0.8-2.5-1-3.2c-4.1-0.6-8-1-11.9-1.7C94,329.2,91.4,328.4,88.8,327.7c-0.1-0.9-0.1-1.9-0.1-2.8
			c7.9-2.3,14.7-7.9,14-12.2c-2,0.8-4.1,1.4-5.8,2.4c-4,2.5-7.6,5.7-11.7,7.7c-2.2,1.1-5.3,0.6-7.4,0.7c-2-5.4-3.6-9.8-5.4-14.2
			c-0.6-1.6-1.5-3.1-2.6-4.4c-0.4-0.5-1.8-0.2-2.7-0.3c0.3,0.6,0.6,1.3,0.9,1.9c0.3,0.5,0.7,1,0.9,1.6c0.6,1.8,1,3.7,1.6,5.5
			c1.6,4.3,3.3,8.5,4.8,12.7c1.5,4.5,2.8,9.1,4.1,13.6c0.9,2.8,2.2,5.6,2.5,8.5c0.6,6.4,1.3,13-3,18.7c-0.6,0.8-0.9,2-0.9,2.1
			c0.6,1.1,1.1,1.9,1.6,2.7c0.2-0.4,0.3-0.8,0.5-0.9c4.7-2.2,6.5-6.1,6.8-11.1c0.5-8.2-0.9-16.1-4.3-23.6c-1.2-2.6-1.9-5.4-3.1-8.8
			C83.2,327.7,86,327.7,88.8,327.7z M288.9,407c-1.9-2.2-3.8-4.5-5.7-6.7c-0.3,0.2-0.6,0.3-0.9,0.5c0.1,1-0.2,2.4,0.4,2.8
			c1.8,1.4,3.9,2.5,5.9,3.7c0,2,0,4,0,6.1c-3-2.2-5.6-4.7-8.7-6c-4.2-1.7-8.7-2.6-13.1-3.6c-4-0.9-6.4-3.9-7-7.1c-0.4-2,2-4.9,3.7-7
			c2.2-2.7,5.1-4.8,7.6-7.4c3.8-4,7.5-8.3,11.3-12.2c3.7-3.8,7.7-7.4,11.5-11.2c3.8-3.8,7.4-7.9,11.2-11.6c0.7-0.7,2.5-0.8,3.6-0.5
			c1.1,0.3,1.8,1.7,2.9,2.3c0.7,0.4,1.7,0.4,2.4,0.2c0.2-0.1,0.5-1.4,0.2-1.9c-1.2-2.2-2.5-4.5-4-6.4c-3.3-4.1-5.6-8.5-6.2-13.8
			c-0.1-1.3-0.3-2.6-0.5-4.4c-2,2.4-2.1,11.5-0.6,13.5c2.6,3.4,3.2,6.9,1.1,9.2c-2.4,2.6-5,5-7.7,7.3c-6.1,5.4-12.3,10.6-18.4,16
			c-2.7,2.4-5.2,4.9-7.8,7.3c-4,3.8-8.2,7.5-12.1,11.4c-1.5,1.5-3,3.4-3.5,5.3c-1.6,6.7,2.6,14.1,8.9,16.3
			c5.2,1.8,10.5,3.2,15.8,4.9c0.6,0.2,1.2,0.7,1.8,1c2.4,1.2,4.6,3.4,7.6,1.5c2.9-1.8,3.2-4.3,2.3-7.3
			C290.6,408,290.9,406.5,288.9,407z M987.4,93c-0.8,1.6-1.5,3.2-2.3,4.9c-5,2.3-8.4-5-13.6-2.9c1,1,1.6,2.3,2.6,2.7
			c2.8,1.2,1.7,1.8,0.4,3.7c-1.3,1.9-1.8,5-1.5,7.4c0.8,5.2,4,9.4,7.5,13.1c5,5.3,6.5,12,8.4,18.6c0.9,3,1,6.2,1.3,9.4
			c0.7,8.6,1.5,17.2,1.9,25.8c0.1,3.3-1.1,6.6-1.4,9.9c-0.6,8.7-1,17.4-1.5,26.2c-0.4,0.2-0.8,0.4-1.2,0.6c-1.4-1.1-2.6-2.5-4.1-3.4
			c-2.7-1.4-3.7-5.6-8.7-4.8c0.9,1.7,1.4,3.1,2.3,4.2c1.5,1.8,3.4,3.4,4.9,5.2c2.9,3.7,5.8,7.4,8.5,11.2c2.8,4.1,5.7,8.2,8.1,12.5
			c1.9,3.4,3.4,7.1,4.8,10.8c1.7,4.2,3.6,8.4,4.9,12.8c1.4,5.1,2.4,10.4,3.2,15.7c0.7,4.4,1.2,8.7,3.3,12.9c1.6,3.1,2,6.8,4.8,9.2
			c0.8,0.7,2.1,0.7,3.1,1c0.1-1.6,3.1-1.9,1.7-4.2c-1.1-1.7-2.2-3.3-2.9-5.2c-1.8-5.1-4.1-10.3-4.9-15.6c-0.9-6.3-2.3-12.4-4.2-18.4
			c-0.5-1.5-0.6-3.2-1.2-4.7c-1.5-3.4-3.1-6.8-4.7-10.2c-1.7-3.5-3-7.3-5.1-10.5c-3.3-5.2-7.2-10-10.2-14.1c1.5-3.1,3.2-5.5,3.7-8.2
			c0.9-4.7,1.6-9.6,1.5-14.3c-0.2-15.3-0.7-30.6-1.4-45.9c-0.2-5.1-0.9-10.2-2.1-15.1c-0.9-3.7-2.5-7.4-4.6-10.5
			c-3.2-4.7-7.2-8.8-10.7-13.2c-2.4-3-1.8-6.8,1-9.2c0.3-0.2,0.5-0.6,0.7-0.9c0,0.3,0.1,0.6,0.1,1c1.8,0.2,3.9,1.1,5.3,0.4
			c1.1-0.5,1.4-2.8,1.8-4.4c0.3-1.1,0.1-2.4,0.2-3.6c2.2-1.7,2.6-4.9,0.1-8C987.4,87.6,987.4,90.3,987.4,93z M562.2,303.3
			c0.4,1,0.7,2,1.4,2.8c1.3,1.7,1.4,5.4,4.2,4.6c2.8-0.8,5.7-2.8,7.5-5.1c3.5-4.4,4.9-9.9,4.5-15.6c-0.4-5.7-1.3-11.5-3.7-16.8
			c-1.9-4.3-3.9-8.6-5.9-12.9c-1.5-3.1-3.1-6.2-4.9-9.2c-1.4-2.3-3.2-4.4-4.8-6.6c-1.2-1.7-2.5-3.4-3.4-5.2c-1-2.1,0.8-3.6,1.5-5.5
			c2.1-5.7,3.7-11.7,4.5-17.7c1.2-9.6,0.3-19.1-5.9-28.5c0,2.2-0.3,3.7,0.1,5c0.7,2.7,2.2,5.3,2.6,8.1c1.2,9.1-1.4,17.8-3.7,26.5
			c-0.5,1.9-0.9,3.9-1.5,6.8c-4.5-9.1-8-17.4-8.8-26.7c-0.1,5.9,0.2,11.8,1.5,17.5c1,4.2,3.2,8.1,5,12.1c1.6,3.5,3.2,7,5.1,10.3
			c3,5.5,6.3,10.7,9.3,16.2c1.5,2.9,1.9,6.5,3.9,9c3.4,4.5,2.9,9.9,4.4,14.8c1.5,5-1.4,10-3.5,14.7c-0.5,1.2-2.5,1.8-4.7,3.3
			c-0.5-4.4-0.8-7.7-1.3-11c-0.2-1.1-0.8-2.3-1.4-3.3c-1.6-2.6-3.3-5-4.9-7.5c-1.9-3.1-3.6-6.2-5.3-9.4c-3.5-6.5-7.1-12.9-10.5-19.4
			c-2.1-3.9-4.3-7.8-6.1-11.9c-1.6-3.6-2.6-7.4-3.9-11.1c-0.8,0.8-1.1,1.6-0.9,2.2c1,3.2,2.1,6.5,3.1,9.7c1.4,4.3,2.7,8.7,4.3,12.9
			c1.9,4.8,3.9,9.6,6.1,14.3c1.8,3.8,4,7.3,6.2,10.9c1.5,2.5,3.8,4.7,4.4,7.4c1.2,5.4,1.7,10.9,2.2,16.4c0.6,6.2,1,12.5,1.6,18.7
			c0.1,0.8,0.6,1.5,1.1,2.3c1.9,3.2,0.3,11.6-2.8,13.4c-5.8,3.4-11.7,6.6-17.6,9.7c-3.4,1.8-7,3.1-10.4,5.1c-4.3,2.5-8.4,5.4-12.7,8
			c-4.7,2.9-9.5,5.7-14.5,8.6c2.4,2.7,4.2,3.7,6.9,2c3.1-2,6.3-3.7,9.5-5.5c4.5-2.5,9-5,13.5-7.5c5.6-3.2,11.1-6.4,16.7-9.5
			c0.8-0.5,1.8-0.7,2.7-1c-0.2,2.5-0.6,4.5-0.5,6.6c0.1,3.1,0.9,6.1,0.8,9.1c-0.2,10.1-0.8,20.2-1.2,30.3c0,0.4-0.2,0.9-0.3,1.3
			c-0.6,2.5-1.3,4.9-1.6,7.5c-0.2,2.4,1.6,3.2,3.4,2.2c3.4-1.8,6.7-0.6,9,1c3.1,2.2,6.2,2.9,9.8,2.9c1.9,0,3.7,0.6,6.1,1
			c0.8-0.7,2.6-1.7,3.4-3.3c2.4-4.5-0.4-9.7-3.6-12.4c-4-3.3-7.2-6.9-6.3-12.5c1.4-8.1,0.9-16.4,2.8-24.6c1.7-7.2,1.3-14.8,1.9-22.3
			c0.1-1.4,1-2.8,1.1-4.2c0.4-3.7,0.6-7.4,0.8-11.1c-0.5,0-1-0.1-1.6-0.1c-0.1,1.2-0.3,2.4-0.4,3.6c-0.2,1.9-0.1,3.8-0.4,5.6
			c-0.8,4.2-2.1,8.3-2.8,12.5c-1.3,7.8-2.4,15.6-3.7,23.4c-0.1,0.3-0.2,0.6-0.2,1c-0.8,6.8-3.2,13.4-3.1,20.4c0.1,4.1,2.6,6,4.7,8.5
			c2.3,2.8,6.6,4.6,5.3,9.2c-7.9,2.5-13.5-2.5-19.9-5.3c0-0.6-0.1-1.3,0-1.9c0.6-4.2,1.6-8.3,1.7-12.5c0.2-4.8,0.4-9.6-1-14.5
			c-1.7-6-1.4-12.6-1.9-18.9c-0.2-2.8-0.3-5.5,3.5-6.3c1-0.2,2-1.1,2.8-1.9c2.5-2.6,5.6-4.6,5.2-9.1c-0.5-5.2-1.5-10.1-2.9-15.1
			C562.5,314.5,562.8,308.7,562.2,303.3L562.2,303.3z M965.9,26.7c-0.6-0.5-1.1-1.1-1.7-1.4c-1-0.4-2.3-0.4-3-1
			c-2.2-1.9-4.2-1.2-6.5,0.2c1.8,1,3.8,1.6,5.7,1.9C962.3,26.6,964.1,26.5,965.9,26.7c0.1,3.1,0.1,6.3,0.1,8.5
			c-3.8,2.3-7.2,4.2-10.5,6.3c-8,5.2-9.2,13.4-9,22c0.1,4.1,0.9,8.3,0.8,12.4c-0.1,5.1,1.9,8.4,6.6,10.3c1,0.4,2.2,1.9,2.1,2.8
			c-0.1,0.9-1.5,2.1-2.5,2.4c-8,2.1-13.1,7.7-15.6,14.8c-2.3,6.4-4.1,13.2-3.8,20.3c0,0.7,0,1.3-0.1,2c-1,8.3-2.3,16.6-2.8,24.9
			c-0.5,8-0.2,16.1-0.1,24.2c0,1.7,1.2,3.3,1.4,5c0.2,1.6-0.2,3.3-0.4,5c-0.1,0.8-0.6,1.6-0.5,2.3c0.3,1.8,1.3,3.6,1.2,5.4
			c-0.1,1.9-1.5,3.8-1.7,5.7c-0.7,6.3-1.4,12.7-1.5,19c-0.2,9.9-0.9,19.5-5,28.8c-1.7,4-1.5,9-1.5,13.6c0,2,1.3,4.3,2.7,5.8
			c2,2.1,4.4,3.8,6.9,5.4c2.5,1.6,4,5.5,2.8,7.9c-0.6,1.2-1,2.5-1.3,3.9c-0.4,1.6-0.3,3.4-1,4.7c-1.6,3.1-3.8,6-5.4,9.2
			c-2.1,4.1-5.2,7-9.2,9.2c-1.9,1.1-3.6,2.7-5.3,4.2c-2.6,2.4-5.4,4.7-7.7,7.3c-2.8,3.1-5.7,6.3-7.9,9.9c-2.1,3.4-3.3,7.3-4.8,10.9
			c-1.7,3.9-3.4,7.8-4.9,11.8c-1.5,4-2.3,8.4-4.3,12.1c-3.3,6.2-6.7,12.4-11,17.9c-3.5,4.4-2.7,8.8-2.7,13.6c1,0.1,1.5,0.3,2.1,0.2
			c5.3-0.4,10.4,0.1,14.9,3.1c1.8,1.2,3.7,2.2,5.6,3.3c2.8,1.6,5.6,3.1,8.3,4.9c4.9,3.4,10.2,5.5,16.3,4.9c3.1-0.3,5.7-2.7,5.6-5.1
			c-3.2,0-6.3,0.2-9.5-0.1c-2.7-0.2-5.5-0.6-7.9-1.7c-3.1-1.5-5.9-3.8-8.8-5.7c-3.2-2-6.4-4.1-9.8-5.6c-3.8-1.7-7.9-2.7-12.4-4.1
			c1.3-2.3,2.3-4.7,3.8-6.8c2.6-3.7,6.1-6.8,8.2-10.7c2.8-5.1,4.9-10.6,6.6-16.2c2-6.5,4.1-13,6.6-19.3c1.9-4.9,4.2-9.6,7.8-13.2
			c4.5-4.6,9.6-8.7,14.9-12.3c7-4.6,11-11.2,13.6-18.6c1.5-4.4,1-9.5,1.4-14.3c0.1-1.1,0-2.2,0-3.6c3.4-0.7,6.7-1.3,9.6-1.9
			c0.8-4.6,1.8-9.1,2.3-13.6c0.4-3.9,0.1-7.9,0.1-11.9c0.1-8.5-0.1-17,0.5-25.5c0.5-7.9,2.1-15.7,2.7-23.6
			c0.9-10.6,0.7-21.3,3.2-31.8c1.3-5.5,1.1-11.3,1.7-17c0.2-1.4,1.1-2.7,1.3-4.1c0.3-1.8,0.2-3.7,0.3-5.5c-0.3,0-0.6,0-1,0
			c-1.3,4.8-2.7,9.6-3.8,14.5c-1.3,5.6-2.5,11.1-3.3,16.8c-1,6.5-1.7,13-3.1,19.5c-1.9,8.8-1.7,17.9-3.3,26.8
			c-1.5,8.3-1.3,16.9-1.6,25.3c-0.3,7.3-0.2,14.6-0.2,21.8c0,1.2,0,2.3,0,3.6c-1.9,0-3.2,0-4.5,0c-7.9,0.3-13.7-8.7-10.4-15.9
			c1.8-3.9,3.8-7.8,4.7-11.9c1-4.1,1.5-8.5,0.9-12.6c-1.7-11.6,0.2-23,0.7-34.6c0-0.6,0.5-1.2,0.9-1.6c0.9-1.1,1.5-1.9-0.1-3.2
			c-0.7-0.6-0.6-2.6-0.4-3.9c0.3-1.8,1.4-3.4,1.5-5.2c0.3-5.6,0-11.3,0.4-16.9c0.8-12.6,2.2-25.3,2.9-37.9c0.4-7,2-13.5,4.8-19.9
			c0.3-0.7,1-1.3,1.6-2c3.3-4.3,8.6-6.4,11.8-11c2.4-3.4,2.7-5.2-1.3-7c-5.9-2.7-8.6-8.8-6.2-14.7c0.6-1.5,2.2-3.2,3.7-3.6
			c5-1.4,10-2.8,15.1-3.2c7-0.5,14.1-0.1,21.4-0.1c0.2,2.3,0.4,4.4,0.6,6.5c0.3,0.1,0.6,0.1,0.9,0.2c0.3-0.8,0.8-1.6,0.8-2.5
			c0-4.2,0-8.4-0.1-12.6c0-0.8,0-1.7-0.3-2.3c-2.8-4.3-4.5-9.5-9.4-12.1c-2.7-1.5-5.6-3.3-8.5-3.8c-7.1-1.1-7.1-0.8-6.8-7.8
			c0-0.5,0.3-1.3,0-1.6C967.2,26.8,966.5,26.9,965.9,26.7z M697.7,101.2c0,2.5,0.2,4.9,0,7.3c-0.6,6.6,3.2,11.3,8.4,13.4
			c4.2,1.7,4.7,5.9,8.1,7.7c0.2,0.1,0.1,1.6-0.3,2.1c-4.7,5.6-5.9,12.7-7.7,19.4c-1.6,5.9-1.6,12.4-1.6,18.6c0,10.7,0.8,21.3,1,32
			c0.2,12.4,0.5,24.7,0.2,37.1c-0.3,9.9,1.1,19.6,2.3,29.4c0.6,4.8,3,9.3,6.4,13c1.2,1.3,3.2,3,3.1,4.5c-0.9,18.3,1.6,36.6-1.5,54.9
			c-1,5.9-3.5,10.9-5.6,16.1c-2.5,6-4.1,12.2-4.5,18.4c-0.7,10.3-0.4,20.7-0.4,31.1c0,1,0.3,2.1,0.4,3.5c14,0,27.5-0.1,41.1,0
			c2.7,0,5.5,0.5,8.2,1.1c1.3,0.3,2.5,1.7,3.8,1.8c4.6,0.3,9.4,1.2,13.6-2.1c1.7-1.3,2-3.2,0.3-4.7c-2.2-1.9-5.4-2.7-6.4-6.1
			c-0.6-2.2-1.6-4.3-2.8-6.2c-2.6-4.2-5.1-8.6-8.4-12.3c-2.4-2.6-4.7-6.6-10.1-4.7c0.4,1.1,0.5,2.3,1.2,3c2.5,2.9,5.6,5.3,7.7,8.5
			c4,6.1,7.4,12.5,11.1,19.1c-3.9,0.4-7.2,0.1-10.1-2.5c-1.8-1.6-4.1-2.6-6.2-4c-2.6-1.7-5.1-3.5-7.8-5.1c-3.6-2.1-7.2-4.4-11.1-6
			c-3.6-1.5-5.8-5.6-4.1-9.1c1.8-3.6,3.9-7,5.6-10.6c2.2-4.6,4.5-9.2,5.9-14c1.3-4.2,1.1-8.8,3.2-13c1.7-3.4,2.3-7.4,3.4-11.1
			c2.1-7.1,6.2-12.4,13.3-15.2c2.4-0.9,4-4.7,2.9-6.3c-2.7-3.6-5.5-7-8-10.7c-3.9-5.7-7.6-11.5-11.4-17.3c-0.2-0.4-0.9-0.7-1.2-0.6
			c-0.4,0.1-0.9,0.9-0.8,1.1c0.4,0.9,1.1,1.6,1.6,2.5c2.7,4.8,5.5,9.6,8.2,14.4c1.3,2.3,2.4,4.8,4,6.9c2.7,3.4,2.2,6.4-1.7,8
			c-0.6,0.3-1.4,0.3-1.8,0.7c-4.4,4.8-8.5,9.8-10.6,16.1c-0.6,1.6-0.7,3.4-1.2,5.1c-1.6,5.1-3.3,10.2-4.9,15.3
			c-1.3,4.2-2.3,8.5-4,12.6c-1.5,3.7-4.4,6.8-5.6,10.5c-1.3,4.2-1.4,8.8-1.8,13.2c-0.2,2.5,1.2,4.1,3.7,4.8c2,0.5,4,1,5.8,2
			c2.5,1.3,4.9,3,7.3,4.6c2.7,1.8,5.4,3.7,8.1,5.6c-0.2,0.4-0.3,0.9-0.5,1.3c-11.7-1.4-23.7,1.7-35-2.4c0.3-1.8,0.7-3.3,0.7-4.9
			c0.1-9.7,0.2-19.4,0-29.1c-0.1-6.1,2.5-11.2,5.1-16.2c2.7-5.2,5.1-10.3,4.8-16c-0.5-12.8,1.4-25.6-1.6-38.4
			c-0.9-4-0.4-8.4-0.3-12.5c0-1.5,0.8-2.9,1.3-4.8c-0.7-1-1.8-2.5-2.6-4.2c-1.8-3.9-4.1-7.8-5.1-11.9c-1.1-4.6-1.1-9.6-1.3-14.4
			c-1.1-20.1,0.6-40.3-1.7-60.5c-1.3-11.3-2.1-23.1,1.2-34.6c1.6-5.4,2.4-11,3.8-16.5c0.4-1.6,1.6-3,2.7-4.4
			c2.7-3.6,2.4-6.2-0.9-9.6c-0.5-0.5-0.1-2.1,0.4-3c1.3-2.8,3.7-5.4,4.1-8.3c0.6-4.5,2.5-8.3,4.8-12c2.1-3.5,4.9-6.6,6.4-10.3
			c0.9-2.4,2.2-2.5,4-2.8c3-0.5,6-1.1,9.1-1.6c0-0.3-0.1-0.7-0.1-1c-3.2-0.2-6.3-0.5-9.7,0.4c-3.4,0.9-7.1,0.8-10.6,0.8
			c-2.1-0.1-4.2-1.4-6.3-1.4c-1.4-0.1-2.8,1.3-4.3,1.6c-5.9,1.1-9.8,4.9-13.2,9.5c-2,2.7-4.8,2.5-7.6,1.8c-2.6-0.6-2-3-2-4.9
			c0-2,0-4.1,0-6.1c-4.5,0.3-6.6,5.9-4.4,9.5c0.5,0.9,0.8,2.9,0.2,3.3c-2.7,2.2-2.8,5.1-2.7,8.5c1.4-0.2,2.9,0,3.3-0.6
			c1.6-2.3,2.8-4.9,4.3-7.7C693.7,101.2,695.6,101.2,697.7,101.2z M49.7,398.7c-1.7,3.6-0.2,5.5,1.7,7.1c4.7,3.8,5.4,6.9,2.1,11.5
			c-0.5,0.7-1.6,1.7-2.2,1.6c-0.8-0.2-1.8-1.3-2-2.1c-1.2-4.6-5-7.3-8.5-9.2c-6-3.3-6.1-10.8-2.4-14.4c4.3-4.2,8.8-8.1,12.3-13.2
			c3.3-4.9,5.7-10.1,6.1-15.8c0.5-6.7,0.9-13.4-2.8-19.6c-2.4-3.9-4.5-8-6.4-12.1c-1.3-2.9-2.4-6-2.8-9.1c-0.3-2.6,0.6-5.3,0.8-7.9
			c0.4-5.6,0.2-11.1,3.1-16.5c2.3-4.3,4.1-8.7,7.3-12.4c3.6-4.1,7-8.5,11.1-12.1c5.1-4.7,10.6-9.1,16.3-13
			c5.4-3.7,11.2-7.4,17.3-9.5c4.4-1.5,9.2-5,14.6-2c0.6,0.3,1.6,0.2,2.3-0.1c5-2.4,9.8-5,12.3-10.3c0.2-0.4,0.6-1,0.9-1.1
			c6.2-1.1,12.3-2.8,18.5-3.1c5.5-0.2,11.2,1.1,16.6,1.8c0.5,1.6,1.5,3.1,1.2,4.1c-1.2,3.5-1.6,7-0.7,10.6c0.3,1.3,1.5,2.3,1.7,3.6
			c0.8,4.1,3,7.2,6,9.9c2.6,2.4,3.2,6.4,1.4,8.2c-3.8,3.7-8.7,5.2-13.6,6.3c-4.9,1.1-9.5-0.9-14.1-2.5c-1.6-0.6-3.4-1.1-4.5-2.2
			c-2.9-2.8-5.5-5.9-8.1-9c-2.2-2.4-6.3-3.3-9.6-1.8c1.3,0.3,2.6,0.3,3.6,0.8c5.8,3,7.2,9.2,8.9,14.6c1.5,4.9,1.5,10.4,1.5,15.7
			c0,7.1-0.3,14.3-0.9,21.4c-0.7,8.3,0.7,16.7-1.8,25.1c-1.4,4.7-1.1,10-3.9,14.3c-1.5,2.4-3.4,4.9-5.7,6.2c-5.4,3-11.4,1.7-17.9,2
			c0.8-1.9,1.4-3.2,1.9-4.5c-0.6-0.7-1.4-1.5-2.1-2.4c-1.7-2.2-3.7-1.3-4.8,0.1c-0.8,1.1-1.1,3.5-0.4,4.7c1.2,2.2,3.3,3.9,4.8,6
			c1.8,2.7,4,4.3,7.4,4.4c4.5,0.2,8.8-0.2,12.8-2.3c2.5-1.3,5.1-2.7,6.9-4.7c2.3-2.7,4.5-5.8,5.7-9.1c1.7-4.9,3.2-10.2,3.4-15.3
			c0.4-15.3,0.1-30.7,0.1-46c0-1.1,0.1-2.4-0.4-3.2c-2.3-3.4-1-7.1-1.5-11.1c15.7,5.8,28.1,1.6,38.3-10.2c-2.2-3.3-4.5-6.6-6.7-9.8
			c-1.6-2.3-4.1-4.5-4.6-7c-0.8-3.9-0.3-8.1-0.1-12.1c0-1,1.6-2.3,1.3-3c-0.9-2.1-0.3-3.8,0.2-5.7c0.8-3.1-0.7-5.8-1.8-8.6
			c-1.7-4.5-5.7-6.7-9.1-9.1c-3.1-2.2-7.2-2.9-11.1-4.4c0.2-1.1,0-3.1,0.8-3.7c1.5-1.1,3.6-1.8,5.5-2.2c3.8-0.8,6.1-3.5,5.1-6.4
			c-2.6,0.8-5.7,1-7.5,2.7c-2.5,2.2-4.9,2.5-7.8,2.3c-1.6-0.1-3.3-0.1-5,0.1c-3.4,0.4-4.3,1.5-3.5,4.5c2.9,0,5.9-0.1,8.8,0.1
			c0.8,0,1.5,1,2.2,1.5c-0.7,0.6-1.3,1.3-2.1,1.7c-1.6,0.8-3.2,1.6-4.9,1.9c-8.9,1.5-15.4,13.3-14.4,21.5c0.5,4.7-2.8,7.1-5.4,9.8
			c-1.4,1.4-4,3-5.6,2.7c-7-1.6-12.9,2.1-19.2,3.4c-1.3,0.3-2.7,0.4-3.8,1c-5.4,2.7-10.7,5.5-16,8.5c-2.4,1.3-4.8,2.8-7,4.6
			c-3.8,3-7.6,6.2-11.2,9.5c-2.9,2.7-5.7,5.5-8.3,8.5c-1.9,2.2-3.5,4.6-5,7c-2.3,3.7-5.2,7.3-6.5,11.4c-1.4,4.5-1.4,9.5-1.4,14.2
			c0,2.5,1,5.1,1.8,7.5c0.8,2.2,2.1,4.2,3.1,6.3c1.9,3.7,3.8,7.4,5.6,11.2c1.6,3.5,3.8,7,4.3,10.6c0.9,6.2,0.9,12.6-1.9,18.4
			c-1.6,3.3-3.2,6.8-5.4,9.7c-2.2,2.9-5.4,5.2-7.9,7.9c-2.3,2.4-5.2,4.9-6.1,7.8c-1.1,3.8-1.8,8.4,1.8,11.9c1.4,1.4,2.8,2.7,4.1,4.1
			c2.7,2.7,5,6,8.1,8c2.1,1.4,5.3,1.2,8,1.5c3.6,0.3,5.1-2.7,6-5c1.8-4.8-0.9-8.9-3.8-12.6C53.7,401.3,51.7,400.3,49.7,398.7z
			 M535.4,332.6c-4.9,1.8-10.1,3.1-14.7,5.5c-4.8,2.4-9.4,5.5-13.6,8.8c-4.7,3.8-8.8,8.4-13.4,12.5c-3,2.7-6.1,5.4-9.6,7.5
			c-2.4,1.4-5.6,1.6-8.3,2.7c-1.2,0.5-2.8,1.7-2.9,2.7c-0.7,8.3-0.6,16.5,3.8,24.1c0.5,0.9,0.6,2.1,1.3,2.8c2.9,2.9,5.1,6.4,8.9,8.6
			c3,1.7,6,2.5,9.3,2.7c0.9,0,2.2-1,2.6-1.9c0.3-0.5-0.6-2-1.4-2.6c-2.7-1.9-5.4-3.8-8.3-5.3c-4.5-2.3-6.7-6.4-8.7-10.6
			c-1.3-2.9-2.1-6-2.9-9.1c-0.7-2.7,1-6.1,3-6.8c2.8-1,5.5-2,8.1-3.2c4.4-2.1,7.1-6.2,10.4-9.6c3.7-3.8,7.3-7.8,11.2-11.4
			c2.9-2.7,6.3-4.9,9.6-7.1c3-2,6-3.8,9.2-5.4c2.8-1.4,5.9-2.2,8.6-3.6c1-0.6,2.3-2.6,2-3.5c-1.7-5-3.8-9.8-5.9-14.7
			c-3.3-7.4-6.7-14.8-9.9-22.2c-1.6-3.6-3.1-7.3-4.3-11.1c-1.5-4.8-3.2-9.6-3.6-14.6c-1.1-13.4-0.2-26.9-1.7-40.3
			c-1-9.1-1.8-18.7,1.1-28c1.3-4.1,1.3-8.4,3.4-12.6c2.6-5.3,5.9-9.3,11-11.9c1.2-0.6,2.3-1.2,3.5-1.8c-1-0.8-2-1.2-2.7-0.9
			c-2.5,1-5.2,1.9-7.4,3.4c-6.8,4.8-10.3,11.9-12.5,19.5c-1.2,4.1-1.5,8.6-1.5,13c0.2,20.1,0.6,40.3,1.3,60.4
			c0.1,4.3,1.7,8.6,2.5,12.9c0.3,1.6,0.4,3.3,1.1,4.8c1.4,3.2,3.3,6.3,4.8,9.6c1.6,3.5,2.9,7,4.4,10.6c2,4.7,3.9,9.4,6,14
			C531.1,324.5,533.3,328.3,535.4,332.6z M553.7,166.2c2.6,4.3,6.8,5.2,11.1,5.9c6.5,1,12-1.7,17.4-4.7c4.5-2.4,5.4-5.4,3.5-10.4
			c-0.6-1.6-1.4-3.1-2.2-4.6c-1.6-3.2-3.2-6.5-5-9.6c-2.5-4.1-5.9-7.8-7.9-12.1c-2.9-6.3-8.3-9.5-14.1-11.3
			c-4.9-1.5-10.3-1.4-15.6-1.3c-2.7,0-5.3,1.5-8.3,2.4c-0.1-0.1-0.7-0.7-1.3-1.1c-2.5-1.5-3.2-3.2-1-5.7c1.2-1.4,2.4-2.9,3.3-4.5
			c1.1-2,0.1-4.2-2-4c-2.3,0.3-4.8,0.8-5.7,3.7c-0.7,2.3-1.7,4.5-2.6,6.7c-1.3,0.1-2.7,0-3.9,0.3c-0.8,0.3-2,1.2-2.1,1.8
			c-0.1,1.2,0.3,2.6,1.1,3.5c1.5,1.7,3.4,1.1,4.9-0.2c3.5-2.9,4.5-2.9,7.1,0.8c-1,0.9-2.2,1.7-3.2,2.7c-3.9,3.9-6.4,8.7-6.4,14.2
			c0,2.8,1.1,5.9,2.5,8.5c2.1,4.1,4.1,8.2,6.3,12.3c2,3.6,3.7,7.2,7.1,9.6c0.7,0.5,1.4,0.9,2,1.4c0.5-1,1.5-2.1,1.4-3.1
			c-0.1-1.1-1.2-2.1-1.8-3.2c-1.6-3-3.3-5.9-4.6-9c-1.1-2.7,1.7-3.5,3.1-4.9c2.5-2.7,4.7-5.7,7.6-7.7c4.5-3,9.5-5.1,15.2-8.1
			c-2.1-0.1-3.4,0-4.5-0.3c-0.9-0.2-2.2-0.6-2.6-1.3c-1.7-3.6-4.4-6-7.9-7.6c-2.4-1.1-4.7-2.2-7.9-3.7c11.1-1.2,21-1.8,28.6,7
			c0.7,0.8,0.8,2.1,1,2.7c1.4,1.5,3.2,2.6,3.3,3.9c0.2,1.3-1.2,2.7-3.3,2.7c-1.1,0-2.6,0.5-3.1,1.3c-0.9,1.4-4.4,1.7-2.7,4
			c3.4-0.6,6.3-1.2,9.4-1.7c0.1-0.6,0.3-1.5,0.5-2.8c1.1,0.4,2.3,0.6,2.7,1.2c2.1,3.8,4,7.7,5.9,11.6c0.6,1.3,0.7,2.9,1.5,4.1
			c3.2,4.9,1.5,8.8-4.3,9.9c-0.8,0.1-1.8,0.2-2.5,0.6c-2.9,1.9-8.9,1.7-11.8,0.2C559.3,165.1,556.4,164.3,553.7,166.2z
			 M1016.9,410.3c0.5-1.5,1.5-3.1,1.2-4.3c-1.7-7.1-0.6-14.6-4.2-21.4c-1.8-3.5-2.5-7.6-4.1-11.2c-2-4.5-4.3-8.9-6.6-13.2
			c-1.3-2.5-2.7-4.9-4.4-7.1c-3.3-4.3-6.2-8.7-6.2-14.4c-0.1-6.8,0.8-13.5,2.9-20.1c1.3-4.1,1.2-8.6,1.8-13c0.1-1.1,0-2.3,0.4-3.3
			c1.3-3.7,0.3-6.8-3-8.9c-1.5-1-3.1-2.1-4.5-3.3c-4.7-4.1-9.6-8.1-14-12.6c-5.4-5.5-9.8-11.8-12.9-18.9c-0.5-1.2-0.9-2.4-1.3-3.6
			c-0.4,0.1-0.7,0.1-1.1,0.2c0.1,1.5-0.2,3.2,0.4,4.5c1.4,2.9,3.1,5.7,4.8,8.5c2,3.4,4,6.9,6.3,10c2,2.6,4.5,4.8,6.8,7.1
			c3.9,4.1,7.7,8.3,11.9,12.1c2,1.8,2.8,3.4,1.9,6c-0.9,2.7-1.8,5.4-2.3,8.2c-1,5.6-1.9,11.2-3,16.8c-2,9.9-0.9,19.7,5.9,28.2
			c3.4,4.3,6.2,9.1,8.6,14.1c2.7,5.5,5,11.3,6.6,17.2c1.7,6.3,2.5,12.8,3.5,19.3C1012.8,409.7,1013.8,411.1,1016.9,410.3z
			 M744.8,241.8c-0.2,0-0.5,0-0.7,0c0.2,1.1,0.1,2.3,0.5,3.2c0.9,2,2,4,3,5.9c1.7,3.2,3.1,6.5,5,9.6c2.8,4.5,6,8.8,8.8,13.2
			c1.5,2.3,2.7,4.9,4.1,7.3c1.6,2.7,3.6,5.2,4.9,8c1.7,3.5,3,7.2,4.3,10.9c0.9,2.5,2.3,5.2,2.2,7.7c-0.2,2.8-1.8,5.6-2.9,8.3
			c-0.2,0.6-0.9,0.9-1.3,1.4c-1.4,1.4-2.9,2.7-4.1,4.2c-3.3,4.3-6.9,8.5-9.5,13.2c-2.9,5.3-5,11.2-7.2,16.9c-1,2.7-1.1,5.7-1.8,8.6
			c-0.4,1.8-1.1,3.4-1.8,5.6c2.4,0,3.9,0,4.7,0c1.5-3.9,3-7.2,4.2-10.6c1.5-4.1,2.7-8.2,4.1-12.3c0.3-1,0.4-2.2,0.9-3.1
			c2.7-4.9,5.5-9.8,8.4-14.6c1.9-3,3.9-6,6.2-8.7c2.1-2.6,4.6-4.9,6.9-7.3c-1.2-2-1.5-3.5-1.9-5.1c-0.3-1.4-0.4-2.8-0.9-4.1
			c-1.8-4.4-3.8-8.8-5.8-13.1c-1.5-3.3-3-6.7-5-9.8c-2.5-3.9-5.5-7.5-8.3-11.3c-2.8-4-5.5-8-8.4-12
			C750.8,249.9,747.8,245.8,744.8,241.8z M967.6,283.7c-5.2,2.4-4.6,7.7-6.7,11.6c-1.7,3.2-2.3,7-3.2,10.5
			c-2.2,8.6-9.6,12.8-15.5,18.2c-3.3,3-7.5,5.1-10.8,8.1c-5.2,4.7-10.3,9.5-14.8,14.8c-5.7,6.6-11.1,13.5-16.1,20.6
			c-3.7,5.2-6.5,11-9.5,16.6c-0.4,0.8,0,2.1,0,3.1c1.2-0.1,2.7,0.1,3.5-0.5c1.1-0.8,1.6-2.3,2.4-3.4c3.5-5.3,7.1-10.6,10.6-15.9
			c1.4-2.1,2.6-4.2,4.2-6.2c2.7-3.4,5.4-6.6,8.3-9.8c2.6-2.9,5.3-5.7,8.1-8.4c2.6-2.6,5.3-5.1,8-7.5c4.3-3.7,8.6-7.5,13.1-10.9
			c4.5-3.3,8.4-7.1,10.4-12.3c1.6-4,2.8-8.1,3.4-12.6c0.4-3.3-0.2-7.1,2.6-10.1C967,288.2,967,285.7,967.6,283.7z M388.2,398.9
			c-0.3,2-0.5,3.4-0.6,4.1c-8.5,6.7-16,0.1-23.6-0.6c0.3-3,0.8-5.5,0.8-8.1c0.3-13.6,0-27.1-2.9-40.5c-1-4.9-0.5-10-3.7-14.4
			c-2-2.7-3.5-5.7-5.7-8.1c-2.8-3-5.2-5.9-5.6-10.2c0-0.5-0.5-1-1-1.9c-0.5,0.9-0.9,1.3-0.9,1.7c-0.1,2.5,0.1,4.7,1.7,6.9
			c2.1,2.8,3.3,6.2,5,9.4c1.6,3,4.2,5.7,4.8,8.9c1.6,8.1,2.8,16.2,3.4,24.4c0.6,8.3,0.2,16.7,0.2,25.1c0,1.1-0.3,2.1-0.5,3.2
			c-0.5,2.6-1.3,5.2-1.3,7.8c0,1.8,1.1,2.7,3.3,1.4c1.5-0.9,4.1-1.3,5.5-0.6c4.9,2.4,10,3,15.4,2.9c0.5,0,1.5-0.2,1.6,0
			c1.8,3.5,3.9,1.2,5.5,0c2-1.4,3.9-3.3,3.7-6.1C393,401.6,390.9,400.4,388.2,398.9z M354.9,323.8c8.8,2.5,17-5,18.4-11.3
			c1.4-6.4,1.1-13.2,1.4-19.8c0-0.8-0.3-1.7-0.7-2.5c-1.9-3.7-3.7-7.5-5.7-11.1c-2.7-4.7-5.6-9.3-8.7-13.8
			c-2.7-3.9-5.9-7.5-8.7-11.4c-2.4-3.4-4.7-6.9-6.8-10.6c-1.6-2.9-2.9-6-4.3-9c-2-4.1-3.8-8.2-6.1-12.2c-1.1-1.9-1.1-5.4-5.8-4.6
			c0.9,2.2,1.7,4,2.4,5.8c1.7,4.4,2.9,9.1,5,13.2c2.7,5.4,6.1,10.4,9.2,15.5c2.4,4,4.6,8.2,7.4,12c3.6,5,8.2,9.3,11.3,14.5
			c3,5.2,6.3,10.4,7.3,16.7c1,6,1.1,11.3-1.9,17.1C365.5,318.4,360.4,320.9,354.9,323.8z M746.9,147.7c-0.3,0.1-0.6,0.1-1,0.2
			c-0.5,2.6-0.8,4.9,0.7,7.8c1.8,3.3,4.5,6.5,4.3,10.6c-0.3,6.6,0.4,13-1.5,19.7c-1.8,6.4-1.4,13.5-1.5,20.3
			c-0.1,5.2,0.5,10.5,0.9,15.8c0.7,7.8,1.5,15.5,2.4,23.3c0.3,2.5,1.7,3.6,4.4,2.6c0.1-1.1,0.2-2.1,0.2-3
			c-0.4-7.8-1.1-15.5-1.2-23.3c-0.2-12.6-0.2-25.1,0-37.7c0-4.7,0.9-9.4,0.8-14.1c-0.1-3.5-0.5-7.1-1.7-10.3
			c-1.2-3.1-3.6-5.8-5.3-8.7C747.6,150,747.3,148.8,746.9,147.7z M1060.1,383.4c-6.6-1.3-13.1-2.4-19.4-3.9
			c-2.4-0.6-5.3-1.4-6.9-3.1c-1.8-1.9-2.9-4.8-3.4-7.4c-1.4-7.3-1.6-14.8-3.1-22.2c-1.6-8.4-1.4-17.3-1.8-25.9
			c-0.2-4.7-0.2-9.5-0.2-14.2c0-1.9-0.4-3.4-2.5-3.5c-2.2,0-2.5,1.7-2.4,3.5c0.5,7.7-0.4,15.4,1.3,23.2c1.7,7.4,1.1,15.3,1.8,22.9
			c0.5,5.5,1.5,10.9,2.3,16.3c0.2,1.6,0.6,3.2,1,4.8c0.8,3.8,3.1,6.9,6.4,8.7c3,1.6,6.5,2.9,9.9,3.2c5.5,0.5,11.2,0.1,16.9,0.1
			C1060.1,384.7,1060.1,383.9,1060.1,383.4z M343.1,289.3c-0.8,1.1-1.3,1.4-1.3,1.7c-0.5,3.7-0.9,7.4-1.3,11.1
			c-0.7,6.6,0.6,13.2-1.7,19.8c-1.6,4.6-1,10-1.7,14.9c-0.6,3.8-1.7,7.4-2.6,11.1c-0.2,0.9-0.5,2-1,2.8c-3.2,4.4-7,8-12,10.3
			c-2,0.9-4,2.2-5.8,3.5c-4.1,2.9-7.8,6.5-12.2,8.8c-3,1.6-3.4,3.1-2.3,6c0.8-0.3,1.6-0.4,2.2-0.7c4-2.5,7.9-5.1,11.8-7.7
			c5.6-3.6,11.1-7.3,16.8-10.8c5.2-3.2,7.2-8.7,8.2-13.8c1.9-9.8,2.7-19.8,3.4-29.8c0.5-7.8,0.1-15.6,0.1-23.5
			C343.5,292.1,343.3,291.1,343.1,289.3z M323,237.6c-0.3,0-0.5-0.1-0.8-0.1c-0.1,0.9-0.5,1.9-0.2,2.6c1,2.6,2.1,5.2,3.4,7.6
			c2.7,5,5.5,10.1,8.5,14.9c2.5,4,5.2,7.9,8.1,11.7c4.1,5.4,8.8,10.5,12.7,16.1c2.4,3.4,4.2,7.5,5.2,11.5c0.7,3.2,1.4,6.8-0.9,10.2
			c-0.7,1-0.1,3.1,0.5,4.6c0.1,0.3,3.2,0.2,3.4-0.2c1.4-3.6,3.6-7.5,3.3-11.1c-0.4-4.5-2.5-9.1-4.6-13.3c-2.1-4.2-5-8-7.9-11.7
			c-3-3.8-6.5-7.1-9.6-10.9c-2.5-3-4.7-6.2-7-9.3c-2.8-3.9-5.7-7.7-8.3-11.8C326.5,245,324.8,241.2,323,237.6z M386.8,401.5
			c-0.6-0.4-0.9-0.7-1.1-0.7c-6.8-0.5-9.2-3.5-8.9-10.4c0.5-13.9,1.1-27.9,1.7-41.8c0-0.3,0-0.7,0.1-1c2.9-5.3,0.8-10.9,1.6-16.5
			c-1.4,0-2.3,0-3,0c-0.8,2-1.8,3.8-2,5.6c-0.7,6-1,12-1.5,18c-0.5,5.5-0.7,11-1.4,16.5c-1,8.1-2.4,16.6,1.2,24.8
			C375.2,400.2,381.8,403.4,386.8,401.5z M98.9,403.7c-0.2-7.1,0.2-13.9-1.3-20.5c-1.3,8.5-0.7,17.2-4.7,26.4
			c3.7-0.5,6.4-0.9,9.1-1.3c2-0.2,4.1-1,5.9-0.4c6.5,1.9,12.7,2.2,18.7-1.5c2.7-1.7,3.8-3.8,3.2-6.4c-3.8-1.4-7.9-2-10.5-4.3
			c-2.8-2.3-4-1.9-5.7,1c2.8,2.2,5.5,4.3,8.9,7C114.2,403.7,106.7,403.7,98.9,403.7z M722.4,163.4c-0.5,0-0.9,0-1.4,0.1
			c0,1.3,0,2.6,0,3.9c0.4,9,0.5,18,1.1,27c0.7,10.7,0,21.4,1.6,32.1c1.7,10.9,0.6,22.1,4.9,32.7c0.9,2.3-0.3,5.7-0.9,8.5
			c-0.7,3-3.6,5.4-1.7,9.2c0.8-0.1,1.8-0.3,1.9-0.3c0.4-2.4,0.3-4.4,1.1-5.8c2.7-4.6,4.5-9.3,1.9-14.5c-0.6-1.1-1.6-2.1-1.8-3.3
			c-1.2-6.8-2.6-13.6-3.3-20.5c-0.6-6.8-0.2-13.7-0.5-20.5c-0.2-6-0.6-12.1-1.1-18.1c-0.5-6-1.4-12-1.8-18.1
			C722.2,171.7,722.4,167.6,722.4,163.4z M122.1,349.3c2.8,1.1,4.2,0.2,4.2-2.7c0-1.8,0.2-3.6-0.3-5.3c-1.4-5.8-0.3-11.8-2.5-17.6
			c-2.2-5.9-2.9-12.5-4.4-18.7c-0.7-3.1-1.8-6-2.7-9c-0.6-2-1.3-4-1.9-6.1c-1,0.8-1.4,1.5-1.2,2.1c0.5,2.1,1.4,4.1,1.8,6.2
			c1.2,5.4,2.4,10.9,3.3,16.4c0.7,4.1,0.9,8.2,1.4,12.4C120.6,334.5,121.3,341.9,122.1,349.3z M738.4,244.5
			c0.8-3.9-0.4-7.8,2.5-10.7c0.3-0.3-0.2-1.4-0.4-2.1c-0.4-1.4-1.4-2.7-1.4-4c0.2-9.7-0.3-19.3,1.4-29c1.1-6.1,0.4-12.5,0.4-18.8
			c0-0.7-0.4-1.5-0.7-2.6C737.4,181.2,736.1,234,738.4,244.5z M353.4,200.6c-0.4,0-0.7,0-1.1-0.1c-0.6,3.4-1.3,6.8-1.8,10.2
			c-0.8,5.5-1.6,11-2.4,16.5c0,0.3-0.2,0.6-0.2,1c-0.4,4.4-0.9,8.8-1.3,13.4c2.7,0,3.6-0.8,3.7-2.9c0.4-7.9,1-15.7,1.6-23.6
			c0.1-1.3,0.7-2.6,1.1-4C353.8,207.6,353.6,204.1,353.4,200.6z M738.4,253.4c0.9,1.6,1.5,2.4,1.8,3.3c0.8,2.4,2.4,4.6,1.3,7.5
			c-1.4,3.8-4.7,5.2-7.6,7.2c-0.6,0.4-0.9,1.1-1.3,1.6c0.8,0.1,1.7,0.5,2.4,0.2c0.9-0.3,1.5-1.3,2.4-1.7c5.5-2.3,8.3-6.9,6.7-12.5
			C743.5,257.1,742.8,253.9,738.4,253.4z M72.6,376.4c-4.3-0.4-16.8,11.7-16.5,15.6C61.5,387,66.9,381.9,72.6,376.4z M279.3,396.7
			c-2-5.4,1.5-6,4.2-7.4c1-0.5,1.6-1.8,2.3-2.7c-0.3-0.3-0.5-0.5-0.8-0.8c-2.9,1.7-6,3.2-8.8,5.1c-0.4,0.3-0.2,2,0.1,2.9
			C276.6,394.5,277.5,395,279.3,396.7z M980.7,21.6c-3.5,0.7-6.7,1.4-9.9,2.1c-0.1,0.3-0.1,0.6-0.2,0.9c0.6,0.3,1.2,0.6,1.9,0.8
			c1.1,0.2,2.2,0,3.2,0.3C979.3,26.9,980.6,26.1,980.7,21.6z M151.8,247.2c-0.2,3.3,1.1,3.2,3.1,2.2c0.9-0.4,2.5-0.8,3.1-0.4
			c2.8,2,3.2,1.9,3.9-1.8C158.6,247.2,155.3,247.2,151.8,247.2z M995.4,82.5c-1.3-3-2.5-5.5-3.6-8c-0.5,0.2-0.9,0.3-1.4,0.5
			c0.2,1,0,2.4,0.6,2.8c3.6,2.5,1.3,3.5-0.9,5C991.8,82.7,993.5,82.6,995.4,82.5z M344.1,175.8c-1.4,4.6,0.7,6.8,6.2,6
			c-0.1-1-0.2-2-0.4-3.7c-1.2,1.1-1.8,1.7-2.5,2.4C346.4,178.9,345.3,177.4,344.1,175.8z M745.8,118.4c0,0.2,0,0.5,0.1,0.7
			c1.3-0.2,2.7-0.1,3.9-0.5c0.5-0.2,0.6-1.4,0.9-2.1c-0.7,0.1-1.4,0-2.1,0.3C747.7,117.2,746.8,117.9,745.8,118.4z"/>
		<path d="M49.7,398.7c2,1.5,4,2.6,5.3,4.2c2.9,3.6,5.6,7.7,3.8,12.6c-0.9,2.4-2.4,5.4-6,5c-2.7-0.3-5.9-0.1-8-1.5
			c-3.1-2-5.4-5.3-8.1-8c-1.4-1.4-2.7-2.8-4.1-4.1c-3.6-3.5-2.9-8.1-1.8-11.9c0.8-3,3.8-5.4,6.1-7.8c2.5-2.7,5.7-5,7.9-7.9
			c2.2-2.9,3.8-6.4,5.4-9.7c2.8-5.9,2.8-12.3,1.9-18.4c-0.5-3.7-2.7-7.1-4.3-10.6c-1.7-3.8-3.7-7.5-5.6-11.2c-1-2.1-2.3-4.1-3.1-6.3
			c-0.9-2.4-1.9-5-1.8-7.5c0-4.8,0-9.7,1.4-14.2c1.2-4.1,4.2-7.7,6.5-11.4c1.5-2.4,3.1-4.9,5-7c2.6-3,5.4-5.8,8.3-8.5
			c3.6-3.3,7.4-6.4,11.2-9.5c2.2-1.7,4.6-3.2,7-4.6c5.3-2.9,10.6-5.7,16-8.5c1.1-0.6,2.5-0.7,3.8-1c6.3-1.4,12.2-5,19.2-3.4
			c1.6,0.4,4.2-1.2,5.6-2.7c2.6-2.7,6-5,5.4-9.8c-0.9-8.1,5.5-19.9,14.4-21.5c1.7-0.3,3.3-1.1,4.9-1.9c0.8-0.4,1.4-1.1,2.1-1.7
			c-0.7-0.5-1.4-1.4-2.2-1.5c-3-0.2-5.9-0.1-8.8-0.1c-0.8-3,0.1-4.1,3.5-4.5c1.6-0.2,3.3-0.2,5-0.1c2.9,0.1,5.3-0.1,7.8-2.3
			c1.9-1.6,5-1.8,7.5-2.7c1,2.9-1.3,5.6-5.1,6.4c-1.9,0.4-4,1-5.5,2.2c-0.8,0.6-0.6,2.6-0.8,3.7c4,1.5,8.1,2.2,11.1,4.4
			c3.4,2.4,7.4,4.6,9.1,9.1c1.1,2.8,2.6,5.5,1.8,8.6c-0.5,2-1.1,3.7-0.2,5.7c0.3,0.7-1.3,2-1.3,3c-0.2,4.1-0.7,8.2,0.1,12.1
			c0.5,2.6,3,4.7,4.6,7c2.2,3.2,4.4,6.5,6.7,9.8c-10.3,11.8-22.7,16-38.3,10.2c0.5,4-0.8,7.6,1.5,11.1c0.5,0.8,0.4,2.1,0.4,3.2
			c0,15.3,0.3,30.7-0.1,46c-0.1,5.2-1.7,10.4-3.4,15.3c-1.1,3.3-3.3,6.5-5.7,9.1c-1.8,2-4.4,3.4-6.9,4.7c-4,2.1-8.3,2.5-12.8,2.3
			c-3.5-0.1-5.6-1.7-7.4-4.4c-1.4-2.1-3.6-3.8-4.8-6c-0.6-1.2-0.4-3.6,0.4-4.7c1.1-1.5,3.1-2.4,4.8-0.1c0.7,0.9,1.5,1.7,2.1,2.4
			c-0.5,1.2-1.1,2.5-1.9,4.5c6.5-0.2,12.6,1,17.9-2c2.4-1.3,4.2-3.9,5.7-6.2c2.8-4.3,2.5-9.6,3.9-14.3c2.5-8.4,1.1-16.7,1.8-25.1
			c0.6-7.1,0.9-14.3,0.9-21.4c0-5.3,0.1-10.8-1.5-15.7c-1.7-5.4-3.1-11.5-8.9-14.6c-1-0.5-2.3-0.5-3.6-0.8c3.3-1.5,7.4-0.6,9.6,1.8
			c2.7,3,5.3,6.1,8.1,9c1.1,1.1,2.9,1.6,4.5,2.2c4.5,1.6,9.1,3.6,14.1,2.5c4.9-1.1,9.8-2.6,13.6-6.3c1.8-1.7,1.2-5.8-1.4-8.2
			c-3-2.8-5.2-5.8-6-9.9c-0.2-1.3-1.4-2.3-1.7-3.6c-0.9-3.6-0.5-7.1,0.7-10.6c0.3-1-0.7-2.5-1.2-4.1c-5.5-0.6-11.1-2-16.6-1.8
			c-6.2,0.3-12.3,2-18.5,3.1c-0.4,0.1-0.7,0.7-0.9,1.1c-2.6,5.3-7.3,8-12.3,10.3c-0.6,0.3-1.7,0.4-2.3,0.1c-5.3-3-10.1,0.5-14.6,2
			c-6.2,2.1-11.9,5.8-17.3,9.5c-5.7,3.9-11.2,8.3-16.3,13c-4,3.7-7.5,8-11.1,12.1c-3.2,3.7-5,8.1-7.3,12.4
			c-2.9,5.4-2.8,10.9-3.1,16.5c-0.2,2.7-1.1,5.4-0.8,7.9c0.4,3.1,1.5,6.2,2.8,9.1c1.9,4.1,4.1,8.2,6.4,12.1c3.7,6.2,3.3,13,2.8,19.6
			c-0.5,5.7-2.8,10.9-6.1,15.8c-3.5,5.1-8,8.9-12.3,13.2c-3.6,3.6-3.6,11,2.4,14.4c3.5,1.9,7.3,4.6,8.5,9.2c0.2,0.9,1.2,1.9,2,2.1
			c0.6,0.1,1.7-0.9,2.2-1.6c3.2-4.7,2.6-7.7-2.1-11.5C49.5,404.3,48,402.3,49.7,398.7z M139.8,218.4c-1.4,0.5-2.3,0.5-2.8,1
			c-3.3,3.3-5.7,7.1-5.1,12c0.1,1.2,0.7,3.3,1,3.3c2,0,4-0.5,5.9-1c0.2-0.1,0.2-1.3,0.2-1.9c0-3.2,0-6.5,0.1-9.7
			C139.1,221.1,139.5,220.1,139.8,218.4z M161.1,224c-0.7,1.1-1.4,1.8-1.3,2.2c0.2,0.7,0.9,1.3,1.4,1.9c0.5-0.5,1.4-1,1.4-1.5
			C162.6,225.9,161.9,225.3,161.1,224z"/>
		<path d="M88.8,327.7c-2.8,0-5.6,0-9.3,0c1.2,3.4,2,6.1,3.1,8.8c3.4,7.5,4.8,15.4,4.3,23.6c-0.3,5-2,8.9-6.8,11.1
			c-0.2,0.1-0.3,0.5-0.5,0.9c-0.5-0.8-1-1.6-1.6-2.7c0.1-0.1,0.3-1.3,0.9-2.1c4.4-5.7,3.7-12.2,3-18.7c-0.3-2.9-1.6-5.7-2.5-8.5
			c-1.4-4.5-2.6-9.1-4.1-13.6c-1.5-4.3-3.2-8.5-4.8-12.7c-0.7-1.8-1-3.7-1.6-5.5c-0.2-0.6-0.6-1-0.9-1.6c-0.3-0.6-0.6-1.3-0.9-1.9
			c0.9,0.1,2.3-0.2,2.7,0.3c1.1,1.3,2,2.9,2.6,4.4c1.8,4.4,3.4,8.8,5.4,14.2c2.1-0.2,5.2,0.4,7.4-0.7c4.1-2.1,7.7-5.2,11.7-7.7
			c1.7-1.1,3.8-1.6,5.8-2.4c0.6,4.2-6.2,9.8-14,12.2C88.7,325.9,88.7,326.8,88.8,327.7L88.8,327.7z"/>
		<path d="M98.9,403.7c7.9,0,15.3,0,23.6,0c-3.4-2.6-6.1-4.8-8.9-7c1.7-3,2.9-3.4,5.7-1c2.7,2.2,6.7,2.8,10.5,4.3
			c0.6,2.6-0.5,4.7-3.2,6.4c-6,3.8-12.2,3.5-18.7,1.5c-1.8-0.5-3.9,0.2-5.9,0.4c-2.7,0.3-5.4,0.8-9.1,1.3c4-9.2,3.4-17.9,4.7-26.4
			C99,389.9,98.7,396.6,98.9,403.7z"/>
		<path d="M122.1,349.3c-0.8-7.4-1.5-14.8-2.3-22.2c-0.4-4.1-0.7-8.3-1.4-12.4c-0.9-5.5-2.1-10.9-3.3-16.4c-0.5-2.1-1.3-4.1-1.8-6.2
			c-0.1-0.6,0.3-1.3,1.2-2.1c0.6,2,1.3,4,1.9,6.1c0.9,3,2,6,2.7,9c1.5,6.2,2.1,12.8,4.4,18.7c2.2,5.8,1.1,11.8,2.5,17.6
			c0.4,1.7,0.2,3.5,0.3,5.3C126.3,349.5,124.9,350.4,122.1,349.3z"/>
		<path d="M88.7,327.8c2.6,0.6,5.2,1.4,7.9,1.8c3.9,0.7,7.7,1.1,11.9,1.7c0.2,0.7,0.5,1.6,1,3.2c-2.2-0.2-4.1-0.1-5.8-0.6
			c-4.6-1.3-9.2-2.7-13.7-4.2C89.5,329.5,89.2,328.4,88.7,327.8C88.8,327.7,88.7,327.8,88.7,327.8z"/>
		<path d="M72.6,376.4c-5.7,5.4-11.1,10.5-16.5,15.6C55.8,388.2,68.3,376,72.6,376.4z"/>
		<path d="M139.5,244.7c0,3.4,0,6.7,0,10.4c1.9-0.2,3.1-0.4,4.4-0.4c0.4,0,1.2,0.5,1.2,0.7c0,0.5-0.3,1.3-0.7,1.5
			c-1.8,0.6-3.6,1-5.9,1.6C138.4,253.5,137.6,249.1,139.5,244.7L139.5,244.7z"/>
		<path d="M151.8,247.2c3.5,0,6.8,0,10.1,0c-0.7,3.7-1.1,3.8-3.9,1.8c-0.6-0.5-2.2-0.1-3.1,0.4C152.8,250.4,151.6,250.5,151.8,247.2
			z"/>
		<path d="M139.6,244.8c0.9-3.4,3.3-4.2,7-1.9C144,243.6,141.8,244.2,139.6,244.8C139.5,244.7,139.6,244.8,139.6,244.8z"/>
		<path class="st0" d="M139.8,218.4c-0.3,1.7-0.7,2.7-0.7,3.7c-0.1,3.2,0,6.4-0.1,9.7c0,0.7,0,1.9-0.2,1.9c-1.9,0.5-3.9,1-5.9,1
			c-0.3,0-0.9-2.1-1-3.3c-0.6-5,1.8-8.7,5.1-12C137.4,218.9,138.4,218.8,139.8,218.4z"/>
		<path class="st0" d="M161.1,224c0.7,1.2,1.4,1.9,1.5,2.6c0,0.5-0.9,1-1.4,1.5c-0.5-0.6-1.2-1.2-1.4-1.9
			C159.7,225.8,160.4,225.1,161.1,224z"/>
	</g>
</g>
</svg>
