<?xml version="1.0" encoding="utf-8"?>
<!-- Generator: Adobe Illustrator 20.0.0, SVG Export Plug-In . SVG Version: 6.00 Build 0)  -->
<svg version="1.1" id="Warstwa_1" xmlns="http://www.w3.org/2000/svg" xmlns:xlink="http://www.w3.org/1999/xlink" x="0px" y="0px"
	 viewBox="0 0 913.9 696" style="enable-background:new 0 0 913.9 696;" xml:space="preserve">
<style type="text/css">
	.st0{fill:#E0B798;}
	.st1{fill:#34495E;}
	.st2{fill:#714120;}
	.st3{fill:#14161D;}
	.st4{fill:#2C3E50;}
	.st5{fill:#CCA68E;}
	.st6{fill:#2D3F51;}
	.st7{fill:#60646D;}
	.st8{fill:#2E455C;}
	.st9{fill:#2C445B;}
	.st10{fill:#21374B;}
	.st11{fill:#DFB697;}
	.st12{fill:#6A3A19;}
	.st13{fill:#6A3918;}
	.st14{fill:#693A19;}
	.st15{fill:#693918;}
	.st16{fill:#E0B799;}
	.st17{fill:#CEA88E;}
	.st18{fill:#E7BFA0;}
	.st19{fill:#E8C1A2;}
	.st20{fill:#E5BA9A;}
	.st21{fill:#6F401F;}
	.st22{fill:#E1B899;}
	.st23{fill:#DCB191;}
	.st24{fill:#15171E;}
</style>
<g>
	<path class="st0" d="M366.1,324.9c5.5-0.6,6.9,4,6.4,8.9c-0.4,4.9-1.6,9.6-3.3,14.1c-0.6,1.5-0.5,3-0.6,4.6
		c-0.1,3.4-1.7,5.1-4.9,4.8c-2.3-0.2-2.6,1-3,2.7c-1.8,8.4-5.3,16.1-10.4,23c-8.3,11.2-19.7,17.7-32.9,21.3
		c-1.2,0.3-2.4,0.6-3.6,0.9c-8.9,2-17.9,2.4-27,2.3c-6.8-0.1-13.4-0.7-20.1-2c-1.7-0.3-1.3,0.6-1.3,1.4l-0.1,0.1
		c-0.3-1.4-1-2.1-2.5-2.5c-11.6-3-22-8.2-30.3-17.1c-7.4-8-11.9-17.4-14.3-28c-0.4-1.8-1.1-2.3-2.8-2.1c-3.3,0.4-4.8-1.7-4.8-3.7
		c0.1-4.2-1.8-7.9-2.7-11.8c-0.9-3.6-1.6-7.2-1.4-10.9c0.2-3.7,1.5-5.5,5.2-6.1c1.3-0.2,0.8-1.1,1.1-1.8c0.8,3.6,1,7.4,2.3,11.2
		c1.7-1.7,2.7-3.5,3.7-5.3c4.5-8.5,7.3-17.7,9.8-27c1.3-4.7,1.2-4.9,6-4.9c13.3-0.3,26.5-1.3,39.7-2.7c12-1.3,24-3,35.9-5.2
		c12-2.2,23.8-4.9,35.5-8.3c1.4-0.4,1.8-0.2,1.8,1.3c0,2,0.2,4,0.3,6c1.3,16,6.3,30.7,14.7,44.3c0.4,0.6,0.6,1.5,1.6,1.6
		C364.8,331,365.5,328,366.1,324.9z M289.5,377.7c3.2,0.1,6.3-0.2,9.5-0.4c7.8-0.7,15.3-2.3,22.4-5.8c4.1-2,7.8-4.5,10.7-8
		c0.6-0.7,1.1-1.5,0.2-2.3c-0.8-0.7-1.6-0.5-2.3,0.3c-4.9,5.6-11.3,8.7-18.3,10.6c-13.3,3.6-26.7,3.6-40.1,1.1
		c-8.6-1.6-16.6-4.8-22.6-11.6c-0.6-0.7-1.4-1.2-2.3-0.4c-0.8,0.8-0.5,1.6,0.2,2.4c2.8,3.2,6.2,5.7,10,7.6
		C267.1,376.3,278.2,377.6,289.5,377.7z M250.1,318.5c0.2,0.3,0.3,0.4,0.4,0.5c1.5,1.1,2.2,2.5,1,4.2c-1.1,1.6-2.7,1.9-4.4,0.7
		c-1.6-1.1-1.1,0.6-1.1,1.1c-0.5,4,1.8,7.7,5.5,9c3.8,1.3,7.9,0,10.1-3.3c2.2-3.3,1.9-7.7-0.8-10.6
		C258,317.1,253.9,316.4,250.1,318.5z M316.6,323.4c-1.5,3.5,0,7.7,3.5,9.8c3.7,2.2,8.5,1.4,11.1-1.9c2.8-3.5,2.6-8.1-0.3-11.3
		c-3-3.2-7.4-3.7-10.6-1.4c2,1.7,2.4,3.2,1.3,4.7C320.4,324.9,318.8,325,316.6,323.4z"/>
	<path class="st1" d="M317.3,412.4c2.7,0.1,5.3,0.7,8,1.3c0.1,0.5,0.3,1,0.3,1.5c0,4.4,0.3,8.8,1,13.2c1.9,12.7,5.8,24.5,14.3,34.5
		c0.9,1.1,1.2,2.2,1.2,3.6c0,21.7,0,43.4,0,65.1c0,12.1,0,24.2,0.1,36.3c0,9.4-0.1,18.9-0.1,28.3c-0.1,0-0.3,0-0.4,0
		c0-19.9,0-39.9,0-59.8c0-1.9-0.3-2.7-2.5-2.7c-34,0.1-68,0.1-102.1,0.1c0-0.3-0.1-0.6-0.1-0.9c0-22.4,0-44.8,0-67.1
		c0-1.2,0.5-2.1,1.2-2.9c3.2-3.6,5.7-7.7,7.7-12.1c5.4-11.7,7.4-24.2,7.6-37c2.7-0.6,5.4-1.3,8.3-1.4c0,0.8,0,1.6,0.1,2.4
		c0.5,11.5,7.2,20,18,22.6c6.8,1.7,13.8,1.6,20.5-0.4c7.5-2.2,12.6-7,15.2-14.5C316.7,419.2,317.1,415.8,317.3,412.4z"/>
	<path class="st2" d="M366.1,324.9c-0.6,3-1.3,6.1-2,9.2c-1-0.2-1.3-1-1.6-1.6c-8.4-13.6-13.4-28.3-14.7-44.3c-0.2-2-0.3-4-0.3-6
		c0-1.5-0.4-1.7-1.8-1.3c-11.7,3.4-23.5,6.1-35.5,8.3c-11.9,2.2-23.9,3.9-35.9,5.2c-13.2,1.4-26.4,2.5-39.7,2.7
		c-4.8,0.1-4.8,0.2-6,4.9c-2.5,9.3-5.2,18.4-9.8,27c-1,1.8-2,3.6-3.7,5.3c-1.3-3.8-1.5-7.6-2.3-11.2c-1.3-8.8-2-17.6-1.5-26.5
		c1.7-31.1,16.8-52.9,46-64.1c25.5-9.8,50.9-8.9,75.5,3.2c20.1,9.9,31.1,26.7,34.6,48.6c2.1,13.3,1.1,26.5-1.2,39.6
		C366.1,324.4,366.1,324.7,366.1,324.9z"/>
	<path class="st3" d="M237.1,533.8c34,0,68,0,102.1-0.1c2.2,0,2.5,0.8,2.5,2.7c-0.1,19.9,0,39.9,0,59.8c-0.9,0-1.8,0.1-2.6,0.1
		c-12.9,0-25.8,0-38.6,0c-0.5-0.7-0.2-1.6-0.2-2.4c0-9.4,0-18.9,0-28.3c0-6-2-8.3-7.9-9c-2.9-0.4-5.7-0.2-8.5,0.7
		c-2.6,0.8-4,2.6-4.6,5.2c-0.3,1.5-0.4,2.9-0.4,4.4c0,9.8,0,19.6,0,29.4c-13.9,0-27.7,0-41.6,0c0-9.6-0.1-19.2-0.1-28.7
		c0-1.3,0.1-2.6,0.1-4C237.1,553.6,237.1,543.7,237.1,533.8z"/>
	<path class="st0" d="M237.1,533.8c0,9.9,0,19.8-0.1,29.8c0,1.3,0,2.6-0.1,4c-6.1,6.5-13.7,7.2-20.2,1.8c-2.8-2.3-4.4-5.5-4.5-9
		c-0.4-9.7,0.1-19.3,0.5-29c0.4-10.4,1.1-20.7,2.2-31c2.3-23.2,6.1-46.1,13.3-68.3c2.6-8,8-12.2,15.2-15.1c3.3-1.3,6.7-2.2,10.1-3
		c-0.1,12.8-2.1,25.3-7.6,37c-2,4.4-4.5,8.4-7.7,12.1c-0.8,0.9-1.2,1.7-1.2,2.9c0,22.4,0,44.8,0,67.1
		C237,533.2,237.1,533.5,237.1,533.8z"/>
	<path class="st0" d="M342.1,567.9c0-12.1-0.1-24.2-0.1-36.3c0-21.7,0-43.4,0-65.1c0-1.4-0.3-2.5-1.2-3.6
		c-8.5-10-12.3-21.8-14.3-34.5c-0.7-4.4-1-8.8-1-13.2c0-0.5-0.2-1-0.3-1.5c6.7,1.5,13.2,3.6,18.9,7.8c2.6,2,4.4,4.5,5.5,7.6
		c5,14,8.3,28.4,10.7,43c2.1,12.5,3.5,25.1,4.5,37.7c0.5,7.1,1,14.2,1.3,21.4c0.4,9.1,0.6,18.1,0.7,27.2c0.1,5.7-2.2,10.2-7.4,12.9
		c-5.4,2.9-11.7,1.9-16.2-2.3C342.9,568.5,342.5,568.2,342.1,567.9z"/>
	<path class="st0" d="M237.1,596.3c13.9,0,27.7,0,41.6,0c0,24,0,47.9,0,71.9c-8.2-1.7-16.5-3.4-24.7-5.2c-5.6-1.2-11.3-2.2-16.9-3.7
		c0-20,0-40.1,0-60.1C237,598.2,237.1,597.2,237.1,596.3z"/>
	<path class="st0" d="M300.4,596.3c12.9,0,25.8,0,38.6,0c0.9,0,1.8-0.1,2.6-0.1c0.1,0,0.2,0,0.4,0c0,21,0,42,0.1,63
		c-0.3,0.1-0.5,0.3-0.8,0.3c-7.8,1.7-15.6,3.3-23.4,5c-5.8,1.2-11.6,2.4-17.4,3.6C300.4,644.2,300.4,620.3,300.4,596.3z"/>
	<path class="st0" d="M317.3,412.4c-0.2,3.5-0.6,6.9-1.7,10.2c-2.5,7.5-7.7,12.3-15.2,14.5c-6.8,2-13.7,2-20.5,0.4
		c-10.8-2.7-17.5-11.2-18-22.6c0-0.8,0-1.6-0.1-2.4c0.4,0,0.7-0.1,1.1-0.1c2-0.1,2.8-1,2.5-3c-0.1-0.7,0-1.4,0-2.2
		c0,0,0.1-0.1,0.1-0.1c6.8,1.9,13.7,2.2,20.7,2.6c4,0.2,7.9,0,11.9-0.3c5.3-0.4,10.5-1,15.6-2.3c0,0.3,0.1,0.6,0.1,0.9
		C313.8,411.6,313.8,411.6,317.3,412.4z"/>
	<path class="st4" d="M300.4,668.1c5.8-1.2,11.6-2.3,17.4-3.6c7.8-1.6,15.6-3.3,23.4-5c0.3-0.1,0.5-0.2,0.8-0.3
		c5.9,2.1,8,6.7,8.5,12.5c0.1,1.4-0.2,1.8-1.6,1.8c-4.9-0.1-9.8,0-14.6,0c-10.6,0-21.1,0-31.7,0c-1.9,0-2.8-0.3-2.4-2.4
		C300.4,670.2,300,669.1,300.4,668.1z"/>
	<path class="st4" d="M237,659.2c5.6,1.6,11.3,2.5,16.9,3.7c8.2,1.8,16.5,3.5,24.7,5.2c0.3,5.3,0.3,5.3-5.1,5.3c-14.3,0-28.6,0-43,0
		c-1.9,0-2.4-0.4-2.2-2.3C229.1,665.6,231.3,661.2,237,659.2z"/>
	<path class="st5" d="M313.7,407c-5.1,1.3-10.4,1.9-15.6,2.3c-4,0.3-7.9,0.6-11.9,0.3c-6.9-0.4-13.9-0.7-20.7-2.6
		c0-0.8-0.4-1.7,1.3-1.4c6.6,1.3,13.3,1.9,20.1,2c9.1,0.1,18.1-0.3,27-2.3C313.7,405.8,313.7,406.4,313.7,407z"/>
	<path class="st2" d="M289.5,377.7c-11.3-0.2-22.4-1.4-32.6-6.6c-3.8-1.9-7.2-4.4-10-7.6c-0.6-0.7-1-1.6-0.2-2.4
		c0.9-0.8,1.6-0.3,2.3,0.4c6,6.8,14,10,22.6,11.6c13.4,2.5,26.8,2.5,40.1-1.1c7-1.9,13.4-5,18.3-10.6c0.7-0.8,1.5-1,2.3-0.3
		c0.9,0.8,0.4,1.6-0.2,2.3c-3,3.5-6.7,6-10.7,8c-7.1,3.4-14.6,5.1-22.4,5.8C295.8,377.6,292.7,377.8,289.5,377.7z"/>
	<path class="st2" d="M250.1,318.5c3.8-2.1,8-1.5,10.7,1.6c2.7,2.9,3,7.3,0.8,10.6c-2.3,3.3-6.3,4.6-10.1,3.3c-3.7-1.3-6-5-5.5-9
		c0.1-0.5-0.4-2.2,1.1-1.1c1.7,1.2,3.2,1,4.4-0.7c1.1-1.6,0.5-3.1-1-4.2C250.3,319,250.3,318.8,250.1,318.5z"/>
	<path class="st2" d="M316.6,323.4c2.2,1.5,3.9,1.5,5-0.1c1.1-1.5,0.7-3-1.3-4.7c3.2-2.4,7.6-1.8,10.6,1.4c3,3.1,3.1,7.8,0.3,11.3
		c-2.6,3.3-7.4,4.2-11.1,1.9C316.6,331.2,315.1,326.9,316.6,323.4z"/>
</g>
<g>
	<path class="st3" d="M648,582.7c-1-11.3-1.8-22.6-3.4-33.9c-1.9-12.6-4.2-25.1-8.4-37.2c-0.3-0.3-0.6-0.6-0.8-0.9
		c-0.3,0-0.6,0-0.9,0c-33.4,0-66.9,0-100.3,0c-0.3,0-0.6,0-0.9,0c-0.3,0.3-0.6,0.6-0.8,0.9c-5.2,13.7-7.3,28.1-9.2,42.6
		c-0.9,6.8-2,13.5-1.8,20.4c1.4,1.1,0.8,2.7,0.8,4.1c0,0.6-0.5,0.5-0.7,0.1c-0.2-0.2-0.2-0.6-0.3-0.8c-0.2,0.7-0.5,1.3-0.7,2
		c-0.2,8.6-0.3,17.2-0.7,25.8c-0.1,3.1,0.8,4.2,4,4.4c5.9,0.4,11.7,1.3,17.6,2c13.7,0.8,27.4,1.6,41.1,2.5c1.2-0.4,2.4-0.4,3.6,0
		c13.7-0.8,27.4-1.7,41.1-2.5c5.7-0.7,11.4-1.5,17.2-1.9c3-0.2,4.2-1.1,4.1-4.3C648.1,598.2,648.2,590.5,648,582.7z"/>
	<path class="st2" d="M502.1,336.5c-3.1-14.6-4.8-29.4-2.3-44.3c4.2-24,18.1-40.2,40.6-48.5c28.5-10.4,57.6-10.6,86.1-0.5
		c30.1,10.6,45.4,36.1,43.1,68.9c-0.6,8.5-2.3,16.8-3,25.3c-0.4,0-0.8,0.1-1.1,0.1c-2-0.5-4-1-6.2-1.6c-0.8,9.5-1.2,18.9-3.8,28
		c-0.3,0-0.6,0-0.9,0c-0.3-1.5-0.7-2.9-1-4.4c-2.8-15.3-5.5-30.6-9-45.7c-0.4-1.6-0.1-3.9-2.9-3.7c-1.8-1.4-3.7-1.4-5.5,0
		c-4.2-2.2-8.5-3.2-12.8,0c-1.8-1.4-3.7-1.4-5.5,0.1c-4.2-2.2-8.5-3.2-12.8-0.1c-1.8-1.4-3.7-1.4-5.5,0.1c-4.2-2.2-8.5-3.2-12.8,0
		c-1.8-1.4-3.7-1.4-5.5,0c-4.2-2.2-8.5-3.1-12.8,0c-1.8-1.4-3.7-1.4-5.5,0c-4.2-2.3-8.5-3.1-12.8,0c-1.8-1.4-3.7-1.4-5.5,0
		c-4.2-2.3-8.5-3.1-12.8,0c-2.1-1.5-4.2-1.3-6.3-0.1c-2.9,0.7-2.2,3.4-2.6,5.2c-3.2,15.3-6.2,30.7-9.3,46c-0.6,0.3-1.1,0.6-1.7,0.9
		c-1.8-7.3-3-14.8-2.8-22.3c0.1-3.9-1.4-4.1-4.3-3.1C504.2,336.6,503.2,336.6,502.1,336.5z"/>
	<path class="st1" d="M533.3,510.8c-0.3,0.3-0.6,0.6-0.8,0.9c0-12.7-0.1-25.4,0-38.1c0.1-3.6-1-6.3-3.2-9.1c-3.2-4.1-7-8-9.2-12.9
		c0.7-2.3,1.5-4.6,2-7c1.8-8.6,6.3-15.2,14-19.5c4.9-1.2,9.7-2.5,14.6-3.7c3.9,10.5,10.6,18.6,21.2,22.9c6.4,2.7,6.4,2.6,9.8-3.2
		c0.7-1.2,0.9-2.9,2.8-3.5c0.9,1.5,1.9,2.8,2.5,4.3c1.6,3.8,3.9,4.6,7.8,3.1c11.2-4.5,18.9-12.3,22.6-23.8c5,0.6,9.6,2.8,14.4,3.9
		c11.6,5,13.4,16,16.4,26.3c-3.2,6.4-8.4,11.2-12.2,17.2c-0.2,0-0.5,0-0.7,0c-1.5,1.3-0.9,3.1-0.9,4.7c0,12.4,0,24.8,0,37.2
		c-33.4,0-66.9,0-100.3,0c0-13.6,0-27.2,0-40.8c-0.3,0-0.6,0-0.9,0C533.3,483.6,533.3,497.2,533.3,510.8z"/>
	<path class="st2" d="M550.8,421.5c-4.9,1.2-9.7,2.5-14.6,3.7c-2.2-0.2-4.2-0.3-6.4,1.2c-11.7,8.1-24.2,8.9-36.4,1.7
		c-12.7-7.4-17.5-19.2-16.3-33.6c1.9-22.1,11.1-41,25-58c1.1,0.1,2.1,0.1,3.2,0.2c-2.3,0.7-3.1,2.2-3.2,4.7c0,7.7,3.8,14.6,4.5,22.2
		c0.1,1,0.9,1.9,2.1,2.1c1.5,1.1,3,0.7,4.6,0.1c0,0-0.1,0-0.1,0c0.3,1.2,0.7,2.4,1,3.6c4.8,21.2,17.9,34.8,38.2,41.9
		c2.7,0.9,5.7,1.1,8.1,2.9c-0.1,0.3,0,0.5,0.1,0.8c-0.4,2,0.8,4.9-2.7,5.4C555.5,420.7,553.2,421.1,550.8,421.5z"/>
	<path class="st2" d="M632,425.3c-4.9-1.1-9.4-3.3-14.4-3.9c-2.5-0.4-5.1-0.7-7.6-1.1c-2.7-1-1.4-3.5-2-5.2c0-0.3,0-0.6,0-1
		c1.2-1.3,3-1.3,4.6-1.8c8.1-2.3,15.7-5.7,22.2-11.1c11.6-9.7,19.1-21.7,19.9-37.3c0.3,0,0.6,0,0.9,0c-0.2,1.6,0.2,2.7,2.1,2.5
		c1.9-0.2,4-0.9,4.1-2.9c0.2-6.2,3.8-11.7,3.8-17.9c0.9-2.4,1.1-4.9,0-7.3c0.1-0.3,0.1-0.6,0-0.9c0.4,0,0.8-0.1,1.1-0.1
		c15.1,18.2,24.5,38.6,24.5,62.6c0,13.2-6.3,23.1-17.9,29c-11.4,5.9-22.9,5.1-33.7-1.9C637.1,425.5,634.9,424.5,632,425.3z"/>
	<path class="st0" d="M586.1,614.7c13.7-0.8,27.4-1.7,41.1-2.5c0,17.6-0.1,35.2-0.1,52.8c-12.1,2.6-24.1,5.5-36.2,7.7
		c-4.3,0.8-5.6,2.5-4.7,6.5c-1.5-0.7-1-2.1-0.9-3.2c1.7-19.8,0.3-39.7,0.7-59.5C586.1,615.9,586.1,615.3,586.1,614.7z"/>
	<path class="st0" d="M541.5,612.2c13.7,0.8,27.4,1.6,41.1,2.5c0,19.7,0,39.5,0,59.2c-13.7-3-27.4-6-41-8.9
		C541.5,647.4,541.5,629.8,541.5,612.2z"/>
	<path class="st0" d="M520.2,451.6c2.2,4.9,5.9,8.7,9.2,12.9c2.2,2.8,3.2,5.5,3.2,9.1c-0.2,12.7-0.1,25.4,0,38.1
		c-5.2,13.7-7.3,28.1-9.2,42.6c-0.9,6.8-2,13.5-1.8,20.4c-0.1,1.1-0.1,2.2-0.2,3.4c-0.2,0.7-0.5,1.3-0.7,2
		c-9.1-2.3-12.9-6.8-12.7-16c0.7-36.6,2.4-73.2,11.6-108.9C519.8,453.9,519.2,452.6,520.2,451.6z"/>
	<path class="st0" d="M636.2,468.8c3.8-6,9-10.8,12.2-17.2c4.5,17.3,7.1,34.9,9.2,52.7c2.3,19.8,2.4,39.6,3.2,59.5
		c0.4,8.2-2.8,12.5-10.5,15.5c-1.9,0.7-1.8,2.1-2.2,3.5c-1-11.3-1.8-22.6-3.4-33.9c-1.9-12.6-4.2-25.1-8.4-37.2c0,0,0.4,0,0.4,0
		c1-1.3,0.6-2.9,0.6-4.4c0-11.4,0-22.7,0-34.1c0-1.5,0.4-3.1-0.7-4.4L636.2,468.8z"/>
	<path class="st6" d="M586.3,679.2c-1-4,0.3-5.7,4.7-6.5c12.1-2.2,24.1-5.1,36.2-7.7c4.8,2,7.3,5.6,8.2,10.6c0.5,2.6,0,3.8-3.1,3.8
		C616.9,679.2,601.6,679.2,586.3,679.2z"/>
	<path class="st6" d="M541.6,665c13.7,3,27.4,6,41,8.9c1.1,4.4-0.6,5.6-5,5.5c-13.6-0.3-27.2-0.2-40.8,0c-3.2,0-4-1-3.4-3.9
		C534.2,670.5,536.8,666.9,541.6,665z"/>
	<path class="st7" d="M635.5,468.8c0.2,0,0.5,0,0.7,0c0,0,0.4,0,0.4,0c-0.3,14.3-0.4,28.6,0,42.8c0,0-0.4,0-0.4,0
		c-0.3-0.3-0.6-0.6-0.8-0.9C635.4,496.8,635.4,482.8,635.5,468.8z"/>
	<path class="st8" d="M533.3,510.8c0-13.6,0-27.2,0-40.8c0.3,0,0.6,0,0.9,0c0,13.6,0,27.2,0,40.8
		C533.9,510.8,533.6,510.8,533.3,510.8z"/>
	<path class="st9" d="M635.5,468.8c0,14,0,28,0,42c-0.3,0-0.6,0-0.9,0c0-12.4,0-24.8,0-37.2C634.6,471.9,634,470.2,635.5,468.8z"/>
	<path class="st10" d="M521.3,578c0.1-1.1,0.1-2.2,0.2-3.4c1.4,1.1,0.8,2.7,0.8,4.1c0,0.6-0.5,0.5-0.7,0.1
		C521.4,578.6,521.4,578.3,521.3,578z"/>
	<path class="st0" d="M654.7,363.9c-0.9,15.5-8.4,27.5-19.9,37.3c-6.5,5.4-14.1,8.8-22.2,11.1c-1.6,0.5-3.3,0.5-4.6,1.8
		c-8,0-15.8,1.9-23.8,2c-8,0.1-15.8-1.8-23.8-1.9c-2.4-1.8-5.4-1.9-8.1-2.9c-20.3-7.1-33.4-20.7-38.2-41.9c1.2-1.8,1.3-3.6,0-5.4
		c0-0.9-0.1-1.8-0.1-2.7c3.1-15.4,6.1-30.7,9.3-46c0.4-1.8-0.2-4.5,2.6-5.2c2.1,0.9,4.2,1.2,6.3,0.1c4.3-3.1,8.5-2.2,12.8,0
		c1.8,0.9,3.7,0.9,5.5,0c4.3-3.1,8.5-2.2,12.8,0c1.8,0.9,3.7,0.9,5.5,0c4.3-3.1,8.5-2.2,12.8,0c1.8,0.9,3.7,0.8,5.5,0
		c4.3-3.1,8.5-2.2,12.8,0c1.8,0.9,3.7,0.9,5.5-0.1c4.3-3.1,8.5-2.2,12.8,0.1c1.8,0.9,3.7,0.9,5.5-0.1c4.3-3.1,8.5-2.2,12.8,0
		c1.8,0.9,3.7,0.9,5.5,0c2.8-0.2,2.5,2,2.9,3.7c3.5,15.1,6.2,30.5,9,45.7C654,361,654.4,362.5,654.7,363.9z M616.3,342.9
		c1.8,1,3.6,1,5.4,0c4.8-2.2,6.7-5.9,5.3-10.5c-1.5-4.8-5.1-7.4-9.4-6.7c-1.6,0.3-3.2,0.4-1.7,3c1.2,2,0.7,5.3-2.5,4.8
		c-4.6-0.7-3,2.1-2.6,3.9C611.6,340.2,613.2,342.4,616.3,342.9z M583.8,386.1c5.6,0,11.2-0.1,16.8-1.2c9.4-1.8,18.2-4.8,25.1-11.9
		c0.8-0.8,2-1.9,0.6-3c-1.2-1-1.9,0.3-2.6,1c-6.3,6.6-14.3,10-23,11c-20,2.4-39.9,3.7-56.3-11.6c-0.7-0.7-1.5-1.1-2.3-0.2
		c-0.8,0.9-0.1,1.7,0.5,2.4c2.5,2.9,5.6,5.1,9,6.9C561.7,384.7,572.6,386.2,583.8,386.1z M549.9,325.7c-3.2-0.1-3.5,0.4-2.9,3.8
		c0.4,2.4-0.2,4.8-3.1,4.2c-3.4-0.8-2.7,1.2-2.5,2.8c0.4,4.1,4.5,7.4,8.6,7.2c4.6-0.2,8.2-4.1,8.1-8.8
		C557.9,329.6,554.6,325.8,549.9,325.7z M575.3,387c0,0.1,0,0.2,0,0.4c6,0,12,0,18,0c0-0.1,0-0.2,0-0.4
		C587.3,387,581.3,387,575.3,387z"/>
	<path class="st11" d="M508.7,365.7c-1.2-0.2-2-1.1-2.1-2.1c-0.6-7.6-4.5-14.5-4.5-22.2c0-2.5,0.9-4,3.2-4.7
		c2.9-1.1,4.4-0.9,4.3,3.1c-0.2,7.5,1,15,2.8,22.3c-0.1,0.6-0.1,1.2-0.2,1.9C511.1,364.5,509.9,365.1,508.7,365.7z"/>
	<path class="st11" d="M665.5,337.5c0.1,0.3,0.1,0.6,0,0.9c-1.4,2.4-1.4,4.9,0,7.3c0,6.2-3.6,11.7-3.8,17.9c-0.1,2-2.2,2.7-4.1,2.9
		c-1.9,0.2-2.3-0.9-2.1-2.5c2.6-9.1,2.9-18.5,3.8-28C661.5,336.4,663.5,337,665.5,337.5z"/>
	<path class="st12" d="M532.4,310.1c-2.1,1.1-4.2,0.7-6.3-0.1C528.2,308.8,530.3,308.6,532.4,310.1z"/>
	<path class="st13" d="M550.6,310.1c-1.8,0.9-3.6,0.9-5.5,0C547,308.7,548.8,308.7,550.6,310.1z"/>
	<path class="st13" d="M605.3,310.1c-1.8,0.9-3.6,1-5.5,0.1C601.7,308.7,603.5,308.7,605.3,310.1z"/>
	<path class="st14" d="M641.8,310.1c-1.8,0.9-3.6,1-5.5,0C638.2,308.7,640,308.7,641.8,310.1z"/>
	<path class="st12" d="M623.6,310.1c-1.8,0.9-3.6,1-5.5,0.1C619.9,308.7,621.7,308.7,623.6,310.1z"/>
	<path class="st13" d="M568.9,310.1c-1.8,0.9-3.6,1-5.5,0C565.2,308.7,567,308.7,568.9,310.1z"/>
	<path class="st15" d="M587.1,310.1c-1.8,0.9-3.6,1-5.5,0C583.4,308.7,585.3,308.7,587.1,310.1z"/>
	<path class="st2" d="M512.2,364c0.1-0.6,0.1-1.2,0.2-1.9c0.6-0.3,1.1-0.6,1.7-0.9c0,0.9,0.1,1.8,0.1,2.7c-0.3,0.6-0.7,1.2-1,1.8
		c0,0,0.1,0,0.1,0C512.9,365.2,512.6,364.6,512.2,364z"/>
	<path class="st16" d="M579.8,428.7c-6.3-0.1-11.7-2.7-16.6-6.3c-1.7-1.3-3.3-1.9-5.3-2c3.5-0.5,2.2-3.4,2.7-5.4
		c15.8,3.9,31.6,3.8,47.4,0.1c0.6,1.8-0.7,4.3,2,5.2c-4.7,1.1-7.8,5-12.3,6.4c-2.9,0.9-5.6,2.2-8.7,2
		C585.9,427.3,582.8,427.2,579.8,428.7z"/>
	<path class="st17" d="M608,415c-15.8,3.7-31.6,3.8-47.4-0.1c-0.1-0.3-0.2-0.5-0.1-0.8c8,0.1,15.7,2,23.8,1.9c8-0.1,15.8-2,23.8-2
		C608,414.4,608,414.7,608,415z"/>
	<path class="st18" d="M513.2,365.7c0.3-0.6,0.7-1.2,1-1.8c1.3,1.8,1.3,3.6,0,5.4C513.9,368.2,513.5,366.9,513.2,365.7z"/>
	<path class="st19" d="M512.2,364c0.3,0.6,0.7,1.2,1,1.8c-1.5,0.6-3.1,1-4.6-0.1C509.9,365.1,511.1,364.5,512.2,364z"/>
	<path class="st18" d="M665.6,345.7c-1.4-2.4-1.4-4.9,0-7.3C666.7,340.8,666.4,343.3,665.6,345.7z"/>
	<path class="st20" d="M636.6,511.7c-0.5-14.3-0.4-28.6,0-42.8c1.1,1.3,0.7,2.9,0.7,4.4c0,11.4,0,22.7,0,34.1
		C637.3,508.8,637.7,510.3,636.6,511.7z"/>
	<path class="st21" d="M583.8,386.1c-11.2,0.1-22.1-1.4-32.2-6.7c-3.4-1.8-6.5-4-9-6.9c-0.6-0.7-1.3-1.4-0.5-2.4
		c0.8-1,1.6-0.5,2.3,0.2c16.4,15.4,36.3,14.1,56.3,11.6c8.7-1.1,16.7-4.4,23-11c0.7-0.7,1.4-2,2.6-1c1.4,1.2,0.2,2.2-0.6,3
		c-6.8,7.1-15.7,10.1-25.1,11.9C595,385.9,589.4,386.1,583.8,386.1z"/>
	<path class="st2" d="M549.9,325.7c4.7,0.1,8,3.9,8.1,9.2c0.1,4.7-3.5,8.6-8.1,8.8c-4.2,0.2-8.2-3.1-8.6-7.2
		c-0.2-1.7-0.9-3.6,2.5-2.8c2.8,0.6,3.5-1.8,3.1-4.2C546.4,326.1,546.8,325.6,549.9,325.7z"/>
	<path class="st2" d="M616.3,342.9c-3.1-0.5-4.7-2.7-5.4-5.5c-0.4-1.7-2-4.6,2.6-3.9c3.2,0.5,3.6-2.8,2.5-4.8c-1.6-2.7,0-2.7,1.7-3
		c4.2-0.8,7.9,1.8,9.4,6.7c1.4,4.6-0.5,8.3-5.3,10.5C619.9,341.6,618.1,341.6,616.3,342.9z"/>
	<path class="st22" d="M575.3,387c6,0,12,0,18,0c0,0.1,0,0.2,0,0.4c-6,0-12,0-18,0C575.3,387.2,575.3,387.1,575.3,387z"/>
	<path class="st12" d="M616.3,342.9c1.8-1.3,3.6-1.3,5.4,0C619.9,343.9,618.1,343.9,616.3,342.9z"/>
	<path class="st23" d="M579.8,428.7c3-1.5,6.1-1.5,9.2,0C585.9,429.3,582.8,429.2,579.8,428.7z"/>
</g>
<circle class="st24" cx="64.9" cy="494.4" r="39.3"/>
<circle class="st24" cx="845.3" cy="494.4" r="39.3"/>
<circle class="st24" cx="751.7" cy="202" r="39.3"/>
<circle class="st24" cx="448.1" cy="68.6" r="39.3"/>
<circle class="st24" cx="131.3" cy="202" r="39.3"/>
</svg>
