<?xml version="1.0" encoding="utf-8"?>
<!-- Generator: Adobe Illustrator 20.0.0, SVG Export Plug-In . SVG Version: 6.00 Build 0)  -->
<svg version="1.1" id="Warstwa_1" xmlns="http://www.w3.org/2000/svg" xmlns:xlink="http://www.w3.org/1999/xlink" x="0px" y="0px"
	 viewBox="0 0 305 332.5" style="enable-background:new 0 0 305 332.5;" xml:space="preserve">
<style type="text/css">
	.st0{fill:#71CAC9;}
	.st1{opacity:0.2;}
	.st2{fill:#231F20;}
	.st3{fill:#277F7A;}
	.st4{fill:#FFFFFF;}
	.st5{filter:url(#Adobe_OpacityMaskFilter);}
	.st6{mask:url(#SVGID_1_);}
	.st7{fill:#12141B;}
	.st8{opacity:0.2;fill:#231F20;enable-background:new    ;}
</style>
<g id="Layer_1">
	<g>
		<circle class="st0" cx="152.9" cy="166.2" r="139.2"/>
	</g>
	<g class="st1">
		<g>
			<path class="st2" d="M152.9,78.8c-52.9,0-95.7,42.9-95.7,95.7s42.9,95.7,95.7,95.7s95.7-42.9,95.7-95.7S205.8,78.8,152.9,78.8z
				 M74.8,134.5c0.9,3.7-0.9,10.3-2.3,19.7c-1.6,11.1,7.2,8.7,6.9,19.1s7.8,14.8,6.7,15.8c-1,1-5.2,2.5,1,16.1
				c6.3,13.6,11.6,17.6,12.4,24.9c0.7,7.3,8.8,18.1,8.8,18.1l0.4,2c-26.1-15.2-43.7-43.5-43.7-75.8
				C65.1,160.1,68.6,146.5,74.8,134.5z M118.2,252.4c-0.4-1.9,0.4-12.4,13-16.6c12.5-4.2,10.5-9.7,14.2-15.1s4.5-9.4-2.7-11.1
				c-7.2-1.6-14.6-2.8-21.1-13c-6.4-10.2-15.4-10.5-20.2-13.6c-4.8-3.1-8.7-2.5-14.5-3.3c-5.8-0.7-3.9-17-3.6-20.6
				c0.3-3.6-3.6,1.2-6.4-1.3c-2.8-2.5,2.7-14.1,8.2-13.6c5.5,0.4,4.2,3.1,5.2,9.3c1,6.1,3,4.6,3.4,2.7c0.4-1.9,0.7-10.2,2.7-12.7
				c1.9-2.5,2.4-9.4,8.7-9.1c6.3,0.3,6.1-5.7,10.8-3.7c4.6,1.9,7.9,0.4,4.9-2.1c-3-2.5-1.3-5.1,3.7-3.4c5.1,1.6,5.4-7.3,4.5-11.9
				c-0.9-4.6-4.6-6-9.3-3.1c-4.6,2.8-8.1,1.6-5.7-3.1c2.4-4.8,11.8-0.7,17.5,1.6c5.7,2.4,7.2-6.3,4-10.5c-3.1-4.2-3.3-2.2-12.2-1.6
				c-3.6,0.2-3.2-1.7-1.5-4.1c9.6-3.6,20.1-5.7,31-5.7c11,0,21.6,2.1,31.3,5.8c1.2,1.7,1.7,3.1,0.9,3.6c-3.6,2.4-6.7,0.3-5.7,6.9
				s6,14.6,9.9,12s10.6,0.7,4.8,4.3c-5.8,3.6-7.5,3.3-10.2,5.7s-1.5,1.2,1.2,4.2c2.7,3,2.4,3.6-1.3,5.1c-3.7,1.5-6,4.8-2.4,8.5
				c3.6,3.7,6,6.9,10,0c4-6.9,4.8-12.8,8.2-11.1c3.4,1.8,7.3,7.3,9.9,4.2c2.5-3.1,2.1-5.2,5.5-2.8c3.4,2.4,16.1,2.5,7.6,8.8
				c-8.5,6.3-7,9-11.1,8.2c-4-0.7-22.3-4.6-26.4,5.5c-4.2,10.2-19.4,18.2-11.5,28.1c7.9,9.9,6.1,17,17.5,18.5
				c11.3,1.5,17.2-3.6,20,1.6c2.8,5.2,0.6,5.8,0.7,13.7c0.1,3.9,2.2,11.3,4.3,17.8c-16,16.6-38.4,26.9-63.2,26.9
				c-12.5,0-24.4-2.6-35.1-7.4C118.1,253.7,118.3,252.8,118.2,252.4z"/>
		</g>
		<g>
			<path class="st3" d="M153.3,106.2c2.8-1.7,3,0.6,5.4-7c2.4-7.6-9-8.7-14.3-7.8c-5.4,0.9-3,3.1-3,3.1c1.8,2.8,3,13.3-0.2,17.2
				c-3.2,3.9,2.6,4.6,5.2,1C148.8,109.2,150.3,108,153.3,106.2z"/>
		</g>
	</g>
	<g>
		<g>
			<path class="st4" d="M152.9,70.9c-52.9,0-95.7,42.9-95.7,95.7s42.9,95.7,95.7,95.7s95.7-42.9,95.7-95.7S205.8,70.9,152.9,70.9z
				 M74.8,126.6c0.9,3.7-0.9,10.3-2.3,19.7c-1.6,11.1,7.2,8.7,6.9,19.1c-0.3,10.5,7.8,14.8,6.7,15.8c-1,1-5.2,2.5,1,16.1
				c6.3,13.6,11.6,17.6,12.4,24.9c0.7,7.3,8.8,18.1,8.8,18.1l0.4,2c-26.1-15.2-43.7-43.5-43.7-75.8
				C65.1,152.2,68.6,138.6,74.8,126.6z M118.2,244.5c-0.4-1.9,0.4-12.4,13-16.6c12.5-4.2,10.5-9.7,14.2-15.1s4.5-9.4-2.7-11.1
				c-7.2-1.6-14.6-2.8-21.1-13c-6.4-10.2-15.4-10.5-20.2-13.6c-4.8-3.1-8.7-2.5-14.5-3.3c-5.8-0.7-3.9-17-3.6-20.6
				c0.3-3.6-3.6,1.2-6.4-1.3c-2.8-2.5,2.7-14.1,8.2-13.6c5.5,0.4,4.2,3.1,5.2,9.3c1,6.1,3,4.6,3.4,2.7c0.4-1.9,0.7-10.2,2.7-12.7
				c1.9-2.5,2.4-9.4,8.7-9.1c6.3,0.3,6.1-5.7,10.8-3.7c4.6,1.9,7.9,0.4,4.9-2.1c-3-2.5-1.3-5.1,3.7-3.4c5.1,1.6,5.4-7.3,4.5-11.9
				c-0.9-4.6-4.6-6-9.3-3.1c-4.6,2.8-8.1,1.6-5.7-3.1c2.4-4.8,11.8-0.7,17.5,1.6c5.7,2.4,7.2-6.3,4-10.5c-3.1-4.2-3.3-2.2-12.2-1.6
				c-3.6,0.2-3.2-1.7-1.5-4.1c9.6-3.6,20.1-5.7,31-5.7c11,0,21.6,2.1,31.3,5.8c1.2,1.7,1.7,3.1,0.9,3.6c-3.6,2.4-6.7,0.3-5.7,6.9
				s6,14.6,9.9,12s10.6,0.7,4.8,4.3c-5.8,3.6-7.5,3.3-10.2,5.7c-2.7,2.4-1.5,1.2,1.2,4.2s2.4,3.6-1.3,5.1c-3.7,1.5-6,4.8-2.4,8.5
				c3.6,3.7,6,6.9,10,0c4-6.9,4.8-12.8,8.2-11.1c3.4,1.8,7.3,7.3,9.9,4.2c2.5-3.1,2.1-5.2,5.5-2.8c3.4,2.4,16.1,2.5,7.6,8.8
				c-8.5,6.3-7,9-11.1,8.2c-4-0.7-22.3-4.6-26.4,5.5c-4.2,10.2-19.4,18.2-11.5,28.1c7.9,9.9,6.1,17,17.5,18.5
				c11.3,1.5,17.2-3.6,20,1.6c2.8,5.2,0.6,5.8,0.7,13.7c0.1,3.9,2.2,11.3,4.3,17.8c-16,16.6-38.4,26.9-63.2,26.9
				c-12.5,0-24.4-2.6-35.1-7.4C118.1,245.8,118.3,244.9,118.2,244.5z"/>
		</g>
		<g>
			<path class="st4" d="M153.3,98.2c2.8-1.7,3,0.6,5.4-7c2.4-7.6-9-8.7-14.3-7.8c-5.4,0.9-3,3.1-3,3.1c1.8,2.8,3,13.3-0.2,17.2
				c-3.2,3.9,2.6,4.6,5.2,1C148.8,101.2,150.3,100,153.3,98.2z"/>
		</g>
	</g>
</g>
</svg>
