<?xml version="1.0" encoding="utf-8"?>
<!-- Generator: Adobe Illustrator 20.0.0, SVG Export Plug-In . SVG Version: 6.00 Build 0)  -->
<svg version="1.1" id="Warstwa_1" xmlns="http://www.w3.org/2000/svg" xmlns:xlink="http://www.w3.org/1999/xlink" x="0px" y="0px"
	 viewBox="0 0 589.4 491.3" style="enable-background:new 0 0 589.4 491.3;" xml:space="preserve">
<style type="text/css">
	.st0{fill:#E0B798;}
	.st1{fill:#34495E;}
	.st2{fill:#714120;}
	.st3{fill:#14161D;}
	.st4{fill:#2C3E50;}
	.st5{fill:#CCA68E;}
	.st6{fill:#15171E;}
	.st7{fill:#2D3F51;}
	.st8{fill:#60646D;}
	.st9{fill:#2E455C;}
	.st10{fill:#2C445B;}
	.st11{fill:#DFB697;}
	.st12{fill:#6A3A19;}
	.st13{fill:#6A3918;}
	.st14{fill:#693A19;}
	.st15{fill:#693918;}
	.st16{fill:#E0B799;}
	.st17{fill:#CEA88E;}
	.st18{fill:#E7BFA0;}
	.st19{fill:#E8C1A2;}
	.st20{fill:#E5BA9A;}
	.st21{fill:#6F401F;}
	.st22{fill:#E1B899;}
	.st23{fill:#DCB191;}
</style>
<g>
	<path class="st0" d="M250.3,221.4c3.9-0.4,4.9,2.8,4.6,6.3c-0.3,3.4-1.1,6.8-2.4,10c-0.4,1.1-0.4,2.1-0.4,3.2
		c-0.1,2.4-1.2,3.6-3.5,3.4c-1.6-0.1-1.8,0.7-2.1,1.9c-1.3,5.9-3.7,11.4-7.3,16.2c-5.9,7.9-13.9,12.5-23.2,15.1
		c-0.9,0.2-1.7,0.4-2.6,0.6c-6.3,1.4-12.6,1.7-19,1.6c-4.8,0-9.5-0.5-14.2-1.4c-1.2-0.2-0.9,0.4-0.9,1l-0.1,0.1
		c-0.2-1-0.7-1.5-1.8-1.7c-8.2-2.1-15.6-5.8-21.4-12.1c-5.2-5.6-8.4-12.3-10.1-19.8c-0.3-1.3-0.8-1.6-2-1.5
		c-2.3,0.3-3.4-1.2-3.4-2.6c0.1-3-1.3-5.5-1.9-8.3c-0.6-2.5-1.1-5.1-1-7.7c0.1-2.6,1.1-3.9,3.7-4.3c0.9-0.2,0.6-0.8,0.8-1.3
		c0.6,2.6,0.7,5.2,1.7,7.9c1.2-1.2,1.9-2.5,2.6-3.7c3.2-6,5.2-12.5,6.9-19c0.9-3.3,0.8-3.4,4.3-3.5c9.4-0.2,18.7-0.9,28-1.9
		c8.5-0.9,16.9-2.1,25.3-3.7c8.4-1.6,16.8-3.5,25.1-5.9c1-0.3,1.3-0.1,1.3,0.9c0,1.4,0.1,2.8,0.2,4.2c0.9,11.3,4.4,21.7,10.4,31.3
		c0.3,0.4,0.4,1,1.2,1.2C249.4,225.6,249.8,223.5,250.3,221.4z M196.2,258.6c2.2,0.1,4.5-0.1,6.7-0.3c5.5-0.5,10.8-1.6,15.8-4.1
		c2.9-1.4,5.5-3.2,7.6-5.7c0.4-0.5,0.8-1.1,0.2-1.7c-0.6-0.5-1.1-0.4-1.6,0.2c-3.4,4-8,6.1-12.9,7.5c-9.4,2.6-18.9,2.6-28.3,0.8
		c-6.1-1.2-11.7-3.4-16-8.2c-0.4-0.5-1-0.9-1.6-0.3c-0.6,0.5-0.3,1.1,0.1,1.7c2,2.3,4.4,4,7,5.4
		C180.4,257.6,188.2,258.5,196.2,258.6z M168.3,216.8c0.1,0.2,0.2,0.3,0.3,0.3c1.1,0.8,1.5,1.8,0.7,2.9c-0.8,1.2-1.9,1.3-3.1,0.5
		c-1.1-0.8-0.8,0.4-0.8,0.8c-0.4,2.9,1.3,5.5,3.9,6.4c2.7,0.9,5.6,0,7.2-2.3c1.6-2.3,1.4-5.4-0.5-7.5
		C174,215.8,171,215.4,168.3,216.8z M215.3,220.3c-1.1,2.5,0,5.5,2.5,6.9c2.6,1.6,6,1,7.9-1.4c2-2.5,1.9-5.7-0.2-8
		c-2.1-2.2-5.2-2.6-7.5-1c1.4,1.2,1.7,2.3,0.9,3.3C218,221.4,216.9,221.4,215.3,220.3z"/>
	<path class="st1" d="M215.8,283.1c1.9,0.1,3.8,0.5,5.6,0.9c0.1,0.4,0.2,0.7,0.2,1.1c0,3.1,0.2,6.2,0.7,9.3
		c1.4,8.9,4.1,17.3,10.1,24.3c0.7,0.8,0.9,1.5,0.9,2.5c0,15.3,0,30.7,0,46c0,8.5,0,17.1,0.1,25.6c0,6.7,0,13.3-0.1,20
		c-0.1,0-0.2,0-0.3,0c0-14.1,0-28.1,0-42.2c0-1.3-0.2-1.9-1.8-1.9c-24,0.1-48,0-72.1,0c0-0.2-0.1-0.4-0.1-0.6c0-15.8,0-31.6,0-47.4
		c0-0.9,0.3-1.5,0.9-2.1c2.2-2.6,4-5.4,5.5-8.5c3.8-8.3,5.2-17.1,5.3-26.1c1.9-0.4,3.8-0.9,5.8-1c0,0.6,0,1.1,0,1.7
		c0.4,8.1,5.1,14.1,12.7,16c4.8,1.2,9.7,1.2,14.5-0.3c5.3-1.6,8.9-4.9,10.7-10.2C215.4,287.9,215.7,285.5,215.8,283.1z"/>
	<path class="st2" d="M250.3,221.4c-0.5,2.1-0.9,4.3-1.4,6.5c-0.7-0.1-0.9-0.7-1.2-1.2c-5.9-9.6-9.5-20-10.4-31.3
		c-0.1-1.4-0.2-2.8-0.2-4.2c0-1-0.3-1.2-1.3-0.9c-8.2,2.4-16.6,4.3-25.1,5.9c-8.4,1.6-16.8,2.8-25.3,3.7c-9.3,1-18.7,1.7-28,1.9
		c-3.4,0.1-3.4,0.2-4.3,3.5c-1.7,6.5-3.7,13-6.9,19c-0.7,1.3-1.4,2.5-2.6,3.7c-0.9-2.7-1.1-5.3-1.7-7.9c-0.9-6.2-1.4-12.4-1-18.7
		c1.2-22,11.8-37.3,32.5-45.3c18-6.9,36-6.3,53.3,2.3c14.2,7,22,18.8,24.4,34.3c1.5,9.4,0.8,18.7-0.8,28
		C250.3,220.9,250.3,221.2,250.3,221.4z"/>
	<path class="st3" d="M159.2,368.8c24,0,48,0,72.1,0c1.5,0,1.8,0.5,1.8,1.9c0,14.1,0,28.1,0,42.2c-0.6,0-1.2,0.1-1.9,0.1
		c-9.1,0-18.2,0-27.3,0c-0.3-0.5-0.2-1.1-0.2-1.7c0-6.7,0-13.3,0-20c0-4.2-1.4-5.8-5.6-6.4c-2-0.3-4.1-0.1-6,0.5
		c-1.8,0.6-2.8,1.8-3.2,3.7c-0.2,1-0.3,2.1-0.3,3.1c0,6.9,0,13.9,0,20.8c-9.8,0-19.6,0-29.3,0c0-6.8-0.1-13.5-0.1-20.3
		c0-0.9,0-1.9,0.1-2.8C159.2,382.8,159.2,375.8,159.2,368.8z"/>
	<path class="st0" d="M159.2,368.8c0,7,0,14-0.1,21c0,0.9,0,1.9-0.1,2.8c-4.3,4.6-9.7,5.1-14.3,1.2c-2-1.6-3.1-3.9-3.2-6.4
		c-0.3-6.8,0.1-13.6,0.4-20.5c0.3-7.3,0.8-14.6,1.5-21.9c1.7-16.4,4.3-32.5,9.4-48.2c1.8-5.6,5.6-8.6,10.7-10.7
		c2.3-0.9,4.7-1.6,7.2-2.1c-0.1,9.1-1.5,17.8-5.3,26.1c-1.4,3.1-3.2,6-5.5,8.5c-0.5,0.6-0.9,1.2-0.9,2.1c0,15.8,0,31.6,0,47.4
		C159.1,368.4,159.2,368.6,159.2,368.8z"/>
	<path class="st0" d="M233.3,392.9c0-8.5,0-17.1-0.1-25.6c0-15.3,0-30.7,0-46c0-1-0.2-1.8-0.9-2.5c-6-7-8.7-15.4-10.1-24.3
		c-0.5-3.1-0.7-6.2-0.7-9.3c0-0.4-0.1-0.7-0.2-1.1c4.7,1.1,9.3,2.5,13.3,5.5c1.9,1.4,3.1,3.2,3.9,5.3c3.5,9.9,5.8,20,7.5,30.4
		c1.4,8.8,2.5,17.7,3.2,26.6c0.4,5,0.7,10.1,0.9,15.1c0.3,6.4,0.4,12.8,0.5,19.2c0.1,4-1.6,7.2-5.2,9.1c-3.8,2-8.3,1.4-11.4-1.6
		C233.9,393.4,233.6,393.1,233.3,392.9z"/>
	<path class="st0" d="M159.2,412.9c9.8,0,19.6,0,29.3,0c0,16.9,0,33.9,0,50.8c-5.8-1.2-11.6-2.4-17.4-3.7c-4-0.9-8-1.5-11.9-2.6
		c0-14.1,0-28.3,0-42.4C159.1,414.3,159.2,413.6,159.2,412.9z"/>
	<path class="st0" d="M203.9,413c9.1,0,18.2,0,27.3,0c0.6,0,1.2,0,1.9-0.1c0.1,0,0.2,0,0.3,0c0,14.8,0,29.7,0,44.5
		c-0.2,0.1-0.4,0.2-0.6,0.2c-5.5,1.2-11,2.4-16.6,3.5c-4.1,0.9-8.2,1.7-12.3,2.5C203.9,446.8,203.9,429.9,203.9,413z"/>
	<path class="st0" d="M215.8,283.1c-0.1,2.4-0.4,4.9-1.2,7.2c-1.8,5.3-5.4,8.7-10.7,10.2c-4.8,1.4-9.7,1.4-14.5,0.3
		c-7.6-1.9-12.4-7.9-12.7-16c0-0.6,0-1.1,0-1.7c0.3,0,0.5-0.1,0.8-0.1c1.4,0,2-0.7,1.8-2.1c-0.1-0.5,0-1,0-1.5l0.1-0.1
		c4.8,1.3,9.7,1.6,14.6,1.9c2.8,0.2,5.6,0,8.4-0.2c3.7-0.3,7.4-0.7,11-1.6c0,0.2,0,0.4,0,0.6C213.3,282.6,213.3,282.6,215.8,283.1z"
		/>
	<path class="st4" d="M203.9,463.7c4.1-0.8,8.2-1.7,12.3-2.5c5.5-1.2,11-2.3,16.6-3.5c0.2,0,0.4-0.2,0.6-0.2c4.1,1.5,5.7,4.7,6,8.9
		c0.1,1-0.2,1.3-1.2,1.2c-3.4-0.1-6.9,0-10.3,0c-7.5,0-14.9,0-22.4,0c-1.3,0-2-0.2-1.7-1.7C203.8,465.1,203.6,464.4,203.9,463.7z"/>
	<path class="st4" d="M159.1,457.4c3.9,1.1,8,1.8,11.9,2.6c5.8,1.3,11.6,2.5,17.4,3.7c0.2,3.8,0.2,3.8-3.6,3.8
		c-10.1,0-20.2,0-30.3,0c-1.3,0-1.7-0.3-1.5-1.7C153.5,461.9,155.1,458.8,159.1,457.4z"/>
	<path class="st5" d="M213.2,279.3c-3.6,0.9-7.3,1.3-11,1.6c-2.8,0.2-5.6,0.4-8.4,0.2c-4.9-0.3-9.8-0.5-14.6-1.9
		c0-0.6-0.3-1.2,0.9-1c4.7,0.9,9.4,1.4,14.2,1.4c6.4,0.1,12.8-0.2,19-1.6C213.3,278.5,213.3,278.9,213.2,279.3z"/>
	<path class="st2" d="M196.2,258.6c-8-0.1-15.8-1-23-4.7c-2.7-1.4-5.1-3.1-7-5.4c-0.5-0.5-0.7-1.1-0.1-1.7c0.6-0.6,1.2-0.2,1.6,0.3
		c4.3,4.8,9.9,7,16,8.2c9.5,1.8,19,1.8,28.3-0.8c5-1.4,9.5-3.5,12.9-7.5c0.5-0.6,1-0.7,1.6-0.2c0.6,0.6,0.3,1.2-0.2,1.7
		c-2.1,2.5-4.7,4.3-7.6,5.7c-5,2.4-10.3,3.6-15.8,4.1C200.6,258.5,198.4,258.7,196.2,258.6z"/>
	<path class="st2" d="M168.3,216.8c2.7-1.5,5.6-1,7.6,1.1c1.9,2.1,2.1,5.2,0.5,7.5c-1.6,2.3-4.5,3.3-7.2,2.3
		c-2.6-0.9-4.3-3.5-3.9-6.4c0-0.4-0.3-1.5,0.8-0.8c1.2,0.8,2.3,0.7,3.1-0.5c0.8-1.2,0.4-2.2-0.7-2.9
		C168.5,217.1,168.5,217,168.3,216.8z"/>
	<path class="st2" d="M215.3,220.3c1.6,1.1,2.7,1.1,3.5,0c0.8-1,0.5-2.1-0.9-3.3c2.3-1.7,5.4-1.3,7.5,1c2.1,2.2,2.2,5.5,0.2,8
		c-1.9,2.3-5.3,2.9-7.9,1.4C215.3,225.8,214.2,222.8,215.3,220.3z"/>
</g>
<circle class="st6" cx="37.6" cy="341" r="27.8"/>
<circle class="st6" cx="538.5" cy="340.2" r="27.8"/>
<circle class="st6" cx="488.7" cy="134.6" r="27.8"/>
<circle class="st6" cx="291.1" cy="40.3" r="27.8"/>
<circle class="st6" cx="84.5" cy="134.6" r="27.8"/>
<g>
	<path class="st3" d="M417.9,402.7c0.1,5.5,0.1,10.9,0.3,16.4c0.1,2.3-0.7,2.9-2.9,3.1c-4.1,0.3-8.1,0.9-12.1,1.3
		c-9.7,0.6-19.3,1.2-29,1.8c-0.8-0.3-1.7-0.3-2.5,0c-9.7-0.6-19.4-1.2-29-1.7c-4.1-0.5-8.3-1.1-12.4-1.4c-2.2-0.2-2.9-1-2.8-3.1
		c0.3-6.1,0.3-12.2,0.5-18.2c0.2-0.5,0.3-0.9,0.5-1.4c0.1,0.2,0.1,0.4,0.2,0.6c0.2,0.3,0.5,0.4,0.5-0.1c0-1,0.4-2.1-0.6-2.9
		c-0.1-4.8,0.7-9.6,1.3-14.4c1.3-10.2,2.8-20.4,6.5-30.1c0.2-0.2,0.4-0.4,0.6-0.6c0.2,0,0.4,0,0.6,0c23.6,0,47.2,0,70.8,0
		c0.2,0,0.4,0,0.6,0c0.2,0.2,0.4,0.4,0.6,0.6c3,8.5,4.6,17.4,5.9,26.3C416.6,386.7,417.1,394.7,417.9,402.7z"/>
	<path class="st2" d="M314.9,228.8c-2.2-10.3-3.4-20.8-1.6-31.3c2.9-16.9,12.8-28.4,28.7-34.2c20.1-7.4,40.6-7.5,60.8-0.3
		c21.3,7.5,32.1,25.5,30.4,48.6c-0.4,6-1.6,11.9-2.2,17.8c-0.3,0-0.5,0-0.8,0.1c-1.4-0.4-2.9-0.7-4.4-1.1
		c-0.6,6.7-0.8,13.4-2.7,19.8c-0.2,0-0.4,0-0.6,0c-0.2-1-0.5-2.1-0.7-3.1c-2-10.8-3.9-21.6-6.4-32.3c-0.3-1.2-0.1-2.7-2-2.6
		c-1.3-1-2.6-1-3.9,0c-3-1.6-6-2.2-9,0c-1.3-1-2.6-1-3.9,0c-3-1.6-6-2.2-9,0c-1.3-1-2.6-1-3.9,0c-3-1.6-6-2.2-9,0
		c-1.3-1-2.6-1-3.9,0c-3-1.6-6-2.2-9,0c-1.3-1-2.6-1-3.9,0c-3-1.6-6-2.2-9,0c-1.3-1-2.6-1-3.9,0c-3-1.6-6-2.2-9,0
		c-1.5-1-3-0.9-4.5-0.1c-2,0.5-1.6,2.4-1.8,3.7c-2.3,10.8-4.4,21.7-6.6,32.5c-0.4,0.2-0.8,0.4-1.2,0.6c-1.3-5.2-2.1-10.5-2-15.8
		c0.1-2.8-1-2.9-3-2.2C316.3,228.9,315.6,228.8,314.9,228.8z"/>
	<path class="st1" d="M336.9,351.9c-0.2,0.2-0.4,0.4-0.6,0.6c0-9-0.1-18,0-26.9c0-2.5-0.7-4.5-2.2-6.4c-2.3-2.9-4.9-5.6-6.5-9.1
		c0.5-1.6,1.1-3.2,1.4-4.9c1.2-6.1,4.4-10.7,9.9-13.7c3.4-0.9,6.9-1.7,10.3-2.6c2.8,7.4,7.5,13.1,15,16.2c4.5,1.9,4.5,1.8,6.9-2.2
		c0.5-0.8,0.7-2,2-2.4c0.6,1,1.3,2,1.8,3c1.1,2.7,2.7,3.3,5.5,2.2c7.9-3.2,13.3-8.7,16-16.8c3.5,0.4,6.8,2,10.2,2.8
		c8.2,3.5,9.5,11.3,11.6,18.6c-2.2,4.5-6,7.9-8.6,12.1c-0.2,0-0.3,0-0.5,0c-1.1,0.9-0.6,2.2-0.6,3.3c0,8.8,0,17.5,0,26.3
		c-23.6,0-47.2,0-70.8,0c0-9.6,0-19.2,0-28.8c-0.2,0-0.4,0-0.6,0C336.9,332.6,336.9,342.2,336.9,351.9z"/>
	<path class="st2" d="M349.2,288.8c-3.4,0.9-6.9,1.7-10.3,2.6c-1.6-0.1-3-0.2-4.5,0.9c-8.3,5.7-17.1,6.3-25.7,1.2
		c-8.9-5.2-12.4-13.6-11.5-23.7c1.3-15.6,7.8-29,17.6-40.9c0.7,0,1.5,0.1,2.2,0.1c-1.6,0.5-2.2,1.5-2.2,3.3c0,5.5,2.7,10.3,3.1,15.7
		c0.1,0.7,0.6,1.4,1.5,1.5c1.1,0.8,2.2,0.5,3.2,0.1c0,0-0.1,0-0.1,0c0.2,0.9,0.5,1.7,0.7,2.6c3.4,15,12.7,24.6,27,29.6
		c1.9,0.7,4,0.8,5.7,2c-0.1,0.2,0,0.4,0.1,0.6c-0.3,1.4,0.6,3.4-1.9,3.8C352.6,288.3,350.9,288.5,349.2,288.8z"/>
	<path class="st2" d="M406.6,291.5c-3.4-0.8-6.7-2.4-10.2-2.8c-1.8-0.3-3.6-0.5-5.4-0.8c-1.9-0.7-1-2.4-1.4-3.7c0-0.2,0-0.5,0-0.7
		c0.9-0.9,2.1-0.9,3.2-1.3c5.7-1.6,11.1-4,15.7-7.8c8.2-6.9,13.5-15.4,14.1-26.3c0.2,0,0.4,0,0.6,0c-0.1,1.1,0.1,1.9,1.5,1.8
		c1.3-0.1,2.8-0.6,2.9-2c0.1-4.4,2.7-8.2,2.7-12.6c0.6-1.7,0.8-3.4,0-5.2c0-0.2,0-0.4,0-0.6c0.3,0,0.5,0,0.8-0.1
		c10.7,12.8,17.3,27.3,17.3,44.2c0,9.3-4.5,16.3-12.7,20.5c-8.1,4.1-16.2,3.6-23.8-1.4C410.2,291.6,408.6,290.9,406.6,291.5z"/>
	<path class="st0" d="M374.2,425.2c9.7-0.6,19.3-1.2,29-1.8c0,12.4,0,24.9-0.1,37.3c-8.5,1.8-17,3.9-25.5,5.4
		c-3.1,0.6-4,1.8-3.3,4.6c-1.1-0.5-0.7-1.5-0.7-2.3c1.2-14,0.2-28,0.5-42C374.1,426.1,374.2,425.7,374.2,425.2z"/>
	<path class="st0" d="M342.6,423.5c9.7,0.6,19.4,1.2,29,1.7c0,13.9,0,27.9,0,41.8c-9.7-2.1-19.3-4.2-29-6.3
		C342.7,448.3,342.7,435.9,342.6,423.5z"/>
	<path class="st0" d="M327.6,310.1c1.5,3.5,4.2,6.2,6.5,9.1c1.5,1.9,2.3,3.9,2.2,6.4c-0.1,9,0,18,0,26.9c-3.7,9.7-5.2,19.9-6.5,30.1
		c-0.6,4.8-1.4,9.5-1.3,14.4c0,0.8-0.1,1.6-0.1,2.4c-0.2,0.5-0.3,0.9-0.5,1.4c-6.5-1.6-9.1-4.8-9-11.3c0.5-25.9,1.7-51.7,8.2-76.9
		C327.3,311.7,326.9,310.8,327.6,310.1z"/>
	<path class="st0" d="M409.5,322.2c2.7-4.2,6.4-7.6,8.6-12.1c3.2,12.2,5,24.7,6.5,37.2c1.6,14,1.7,28,2.3,42c0.3,5.8-2,8.8-7.4,10.9
		c-1.4,0.5-1.3,1.5-1.6,2.5c-0.7-8-1.2-16-2.4-23.9c-1.3-8.9-2.9-17.7-5.9-26.3c0,0,0.3,0,0.3,0c0.7-1,0.4-2.1,0.4-3.1
		c0-8,0-16,0-24.1c0-1,0.3-2.2-0.5-3.1L409.5,322.2z"/>
	<path class="st7" d="M374.3,470.8c-0.7-2.8,0.2-4.1,3.3-4.6c8.6-1.6,17-3.6,25.5-5.4c3.4,1.4,5.2,4,5.8,7.5c0.3,1.8,0,2.7-2.2,2.7
		C395.9,470.8,385.1,470.8,374.3,470.8z"/>
	<path class="st7" d="M342.7,460.7c9.7,2.1,19.3,4.2,29,6.3c0.8,3.1-0.4,4-3.6,3.9c-9.6-0.2-19.2-0.1-28.8,0c-2.2,0-2.8-0.7-2.4-2.7
		C337.5,464.6,339.3,462.1,342.7,460.7z"/>
	<path class="st8" d="M409,322.2c0.2,0,0.3,0,0.5,0c0,0,0.3,0,0.3,0c-0.2,10.1-0.3,20.2,0,30.3c0,0-0.3,0-0.3,0
		c-0.2-0.2-0.4-0.4-0.6-0.6C409,342,409,332.1,409,322.2z"/>
	<path class="st9" d="M336.9,351.9c0-9.6,0-19.2,0-28.8c0.2,0,0.4,0,0.6,0c0,9.6,0,19.2,0,28.8C337.3,351.9,337.1,351.9,336.9,351.9
		z"/>
	<path class="st10" d="M409,322.2c0,9.9,0,19.8,0,29.6c-0.2,0-0.4,0-0.6,0c0-8.8,0-17.5,0-26.3C408.4,324.4,407.9,323.2,409,322.2z"
		/>
	<path class="st3" d="M328.4,399.3c0-0.8,0.1-1.6,0.1-2.4c1,0.8,0.6,1.9,0.6,2.9c0,0.5-0.3,0.3-0.5,0.1
		C328.5,399.7,328.4,399.5,328.4,399.3z"/>
	<path class="st0" d="M422.6,248.2c-0.6,11-5.9,19.4-14.1,26.3c-4.6,3.8-9.9,6.2-15.7,7.8c-1.1,0.3-2.3,0.3-3.2,1.3
		c-5.6,0-11.1,1.3-16.8,1.4c-5.7,0.1-11.2-1.3-16.8-1.3c-1.7-1.3-3.8-1.4-5.7-2c-14.3-5-23.6-14.6-27-29.6c0.9-1.3,0.9-2.6,0-3.8
		c0-0.6,0-1.3-0.1-1.9c2.2-10.8,4.3-21.7,6.6-32.5c0.3-1.3-0.2-3.2,1.8-3.7c1.5,0.6,3,0.9,4.5,0.1c3-2.2,6-1.6,9,0
		c1.3,0.6,2.6,0.6,3.9,0c3-2.2,6-1.6,9,0c1.3,0.6,2.6,0.6,3.9,0c3-2.2,6-1.6,9,0c1.3,0.7,2.6,0.6,3.9,0c3-2.2,6-1.6,9,0
		c1.3,0.6,2.6,0.6,3.9,0c3-2.2,6-1.5,9,0c1.3,0.6,2.6,0.6,3.9,0c3-2.2,6-1.5,9,0c1.3,0.7,2.6,0.6,3.9,0c2-0.2,1.8,1.4,2,2.6
		c2.5,10.7,4.3,21.5,6.4,32.3C422.1,246.1,422.3,247.1,422.6,248.2z M395.5,233.3c1.3,0.7,2.6,0.7,3.8,0c3.4-1.5,4.7-4.2,3.7-7.4
		c-1-3.4-3.6-5.2-6.6-4.7c-1.2,0.2-2.3,0.3-1.2,2.1c0.8,1.4,0.5,3.7-1.7,3.4c-3.3-0.5-2.1,1.5-1.8,2.7
		C392.1,231.4,393.3,232.9,395.5,233.3z M372.5,263.8c4,0,7.9-0.1,11.9-0.9c6.6-1.3,12.9-3.4,17.7-8.4c0.5-0.6,1.4-1.3,0.4-2.1
		c-0.8-0.7-1.3,0.2-1.8,0.7c-4.4,4.7-10.1,7-16.2,7.8c-14.1,1.7-28.2,2.6-39.8-8.2c-0.5-0.5-1.1-0.8-1.6-0.1
		c-0.6,0.7-0.1,1.2,0.4,1.7c1.8,2,4,3.6,6.4,4.9C356.9,262.8,364.6,263.9,372.5,263.8z M348.6,221.1c-2.2-0.1-2.5,0.3-2.1,2.7
		c0.3,1.7-0.2,3.4-2.2,3c-2.4-0.5-1.9,0.8-1.8,2c0.3,2.9,3.1,5.2,6.1,5.1c3.2-0.2,5.8-2.9,5.7-6.2
		C354.3,223.9,351.9,221.2,348.6,221.1z M366.5,264.4c0,0.1,0,0.2,0,0.3c4.2,0,8.5,0,12.7,0c0-0.1,0-0.2,0-0.3
		C375,264.4,370.7,264.4,366.5,264.4z"/>
	<path class="st11" d="M319.5,249.4c-0.8-0.2-1.4-0.8-1.5-1.5c-0.5-5.3-3.2-10.2-3.1-15.7c0-1.8,0.6-2.8,2.2-3.3
		c2.1-0.8,3.1-0.6,3,2.2c-0.1,5.3,0.7,10.6,2,15.8c0,0.4-0.1,0.9-0.1,1.3C321.2,248.6,320.3,249,319.5,249.4z"/>
	<path class="st11" d="M430.2,229.5c0.1,0.2,0.1,0.4,0,0.6c-1,1.7-1,3.4,0,5.2c0,4.4-2.6,8.2-2.7,12.6c0,1.4-1.5,1.9-2.9,2
		c-1.3,0.1-1.6-0.6-1.5-1.8c1.8-6.4,2.1-13.1,2.7-19.8C427.4,228.8,428.8,229.1,430.2,229.5z"/>
	<path class="st12" d="M336.2,210.2c-1.5,0.8-3,0.5-4.5-0.1C333.3,209.2,334.7,209.1,336.2,210.2z"/>
	<path class="st13" d="M349.1,210.2c-1.3,0.7-2.6,0.7-3.9,0C346.5,209.2,347.8,209.2,349.1,210.2z"/>
	<path class="st13" d="M387.7,210.2c-1.3,0.6-2.6,0.7-3.9,0C385.1,209.2,386.4,209.2,387.7,210.2z"/>
	<path class="st14" d="M413.5,210.2c-1.3,0.6-2.6,0.7-3.9,0C410.9,209.2,412.2,209.2,413.5,210.2z"/>
	<path class="st12" d="M400.6,210.2c-1.3,0.6-2.6,0.7-3.9,0C398,209.2,399.3,209.2,400.6,210.2z"/>
	<path class="st13" d="M362,210.2c-1.3,0.6-2.6,0.7-3.9,0C359.4,209.2,360.7,209.2,362,210.2z"/>
	<path class="st15" d="M374.9,210.2c-1.3,0.6-2.6,0.7-3.9,0C372.3,209.2,373.6,209.2,374.9,210.2z"/>
	<path class="st2" d="M322,248.2c0-0.4,0.1-0.9,0.1-1.3c0.4-0.2,0.8-0.4,1.2-0.6c0,0.6,0,1.3,0.1,1.9c-0.2,0.4-0.5,0.8-0.7,1.3
		c0,0,0.1,0,0.1,0C322.5,249,322.2,248.6,322,248.2z"/>
	<path class="st16" d="M369.7,293.9c-4.4-0.1-8.3-1.9-11.7-4.5c-1.2-0.9-2.4-1.3-3.7-1.4c2.4-0.4,1.6-2.4,1.9-3.8
		c11.2,2.7,22.3,2.7,33.5,0.1c0.4,1.3-0.5,3,1.4,3.7c-3.3,0.8-5.5,3.5-8.7,4.5c-2,0.6-4,1.6-6.2,1.4
		C374,292.9,371.8,292.9,369.7,293.9z"/>
	<path class="st17" d="M389.6,284.3c-11.2,2.6-22.3,2.7-33.5-0.1c-0.1-0.2-0.1-0.4-0.1-0.6c5.6,0,11.1,1.4,16.8,1.3
		c5.6-0.1,11.1-1.4,16.8-1.4C389.6,283.8,389.6,284,389.6,284.3z"/>
	<path class="st18" d="M322.7,249.4c0.2-0.4,0.5-0.8,0.7-1.3c0.9,1.3,0.9,2.5,0,3.8C323.2,251.1,322.9,250.3,322.7,249.4z"/>
	<path class="st19" d="M322,248.2c0.2,0.4,0.5,0.9,0.7,1.3c-1.1,0.4-2.2,0.7-3.2-0.1C320.3,249,321.2,248.6,322,248.2z"/>
	<path class="st18" d="M430.2,235.3c-1-1.7-1-3.4,0-5.2C431,231.8,430.9,233.6,430.2,235.3z"/>
	<path class="st20" d="M409.8,352.5c-0.3-10.1-0.3-20.2,0-30.3c0.8,0.9,0.5,2,0.5,3.1c0,8,0,16,0,24.1
		C410.3,350.4,410.6,351.5,409.8,352.5z"/>
	<path class="st21" d="M372.5,263.8c-7.9,0.1-15.6-1-22.8-4.7c-2.4-1.3-4.6-2.8-6.4-4.9c-0.4-0.5-0.9-1-0.4-1.7
		c0.6-0.7,1.1-0.4,1.6,0.1c11.6,10.8,25.7,9.9,39.8,8.2c6.1-0.8,11.8-3.1,16.2-7.8c0.5-0.5,1-1.4,1.8-0.7c1,0.8,0.1,1.6-0.4,2.1
		c-4.8,5-11.1,7.2-17.7,8.4C380.5,263.7,376.5,263.8,372.5,263.8z"/>
	<path class="st2" d="M348.6,221.1c3.3,0.1,5.7,2.8,5.7,6.5c0.1,3.3-2.4,6.1-5.7,6.2c-2.9,0.1-5.8-2.2-6.1-5.1
		c-0.1-1.2-0.6-2.5,1.8-2c2,0.4,2.5-1.2,2.2-3C346.1,221.4,346.4,221.1,348.6,221.1z"/>
	<path class="st2" d="M395.5,233.3c-2.2-0.4-3.3-1.9-3.8-3.8c-0.3-1.2-1.4-3.2,1.8-2.7c2.2,0.3,2.6-2,1.7-3.4
		c-1.1-1.9,0-1.9,1.2-2.1c3-0.6,5.6,1.3,6.6,4.7c1,3.2-0.3,5.8-3.7,7.4C398,232.4,396.8,232.4,395.5,233.3z"/>
	<path class="st22" d="M366.5,264.4c4.2,0,8.5,0,12.7,0c0,0.1,0,0.2,0,0.3c-4.2,0-8.5,0-12.7,0C366.5,264.6,366.5,264.5,366.5,264.4
		z"/>
	<path class="st12" d="M395.5,233.3c1.3-0.9,2.5-0.9,3.8,0C398,234,396.8,234.1,395.5,233.3z"/>
	<path class="st23" d="M369.7,293.9c2.2-1.1,4.3-1,6.5,0C374,294.3,371.8,294.3,369.7,293.9z"/>
</g>
</svg>
