<?xml version="1.0" encoding="utf-8"?>
<!-- Generator: Adobe Illustrator 20.0.0, SVG Export Plug-In . SVG Version: 6.00 Build 0)  -->
<svg version="1.1" id="Warstwa_1" xmlns="http://www.w3.org/2000/svg" xmlns:xlink="http://www.w3.org/1999/xlink" x="0px" y="0px"
	 viewBox="0 0 150 150" style="enable-background:new 0 0 150 150;" xml:space="preserve">
<style type="text/css">
	.st0{fill:#C62527;}
	.st1{fill:#FFFFFF;}
	.st2{fill:#A11E21;}
</style>
<g id="Layer_x0020_1">
	<g id="_445042792">
		<path class="st0" d="M26.7,13.6h96.7c7.2,0,13.1,5.9,13.1,13.1v96.7c0,7.2-5.9,13.1-13.1,13.1H26.7c-7.2,0-13.1-5.9-13.1-13.1
			V26.7C13.6,19.4,19.4,13.6,26.7,13.6z"/>
		<polygon class="st1" points="61.6,52.3 81.3,63.8 101.5,75.3 81.3,86.2 61.6,97.7 61.6,75.3 		"/>
		<polygon class="st2" points="136.4,110.2 101.5,75.3 81.3,86.2 61.6,97.7 100.4,136.4 123.3,136.4 136.4,123.3 136.4,110.2 
			101.5,75.3 		"/>
	</g>
</g>
<g>
</g>
<g>
</g>
<g>
</g>
<g>
</g>
<g>
</g>
<g>
</g>
</svg>
